<svg xmlns="http://www.w3.org/2000/svg" width="160.632" height="168.095" viewBox="0 0 160.632 168.095">
  <g id="confirm-icon" transform="translate(-92 -142.072)">
    <g id="Group_415" data-name="Group 415" transform="translate(103.723 159.727)">
      <g id="Group_409" data-name="Group 409" transform="translate(0 0)">
        <path id="Path_289" data-name="Path 289" d="M82.292,48.009A6.719,6.719,0,0,1,79.6,47.45a7.229,7.229,0,0,1-2.084-1.423A47.34,47.34,0,0,1,66.486,35.3a37.1,37.1,0,0,1-7.115-17.788c-.457-4.828,1.22-10.368-2.49-12.248S48.648,7.758,46,12.382a14.361,14.361,0,0,0-1.169,2.694c-1.83,5.235-2.033,12.5-1.22,17.686,1.626,9.758,3,13.468,3.151,18.194V50.55H20.949a7.287,7.287,0,0,0-7.318,6.759,7.124,7.124,0,0,0,7.115,7.471h-8.64a7.1,7.1,0,0,0-7.115,7.471A7.253,7.253,0,0,0,12.31,79.01H16.68a7.1,7.1,0,0,0-7.115,7.471,7.253,7.253,0,0,0,7.318,6.759h5.641a7,7,0,0,0,2.846,13.468H64.708c2.389,0,4.777-3.964,6.3-5.794l.559-.762a6.836,6.836,0,0,1,5.489-2.8H96.98V48.06H82.292Z" transform="translate(-2.45 -2.342)" fill="#fff"/>
        <g id="Group_406" data-name="Group 406" transform="translate(16.784 88.358)">
          <g id="Group_405" data-name="Group 405">
            <path id="Path_290" data-name="Path 290" d="M33.063,183.456a6.68,6.68,0,0,1,.813-4.015,7.024,7.024,0,0,0,6.15,3.71h39.54c2.389,0,4.777-3.964,6.3-5.794h0a8.714,8.714,0,0,1,7.013-3.558h18.906v6.607H88.459l-2.592,3.558c-1.575,1.83-3.913,5.794-6.3,5.794H40.178A7.11,7.11,0,0,1,33.063,183.456Z" transform="translate(-33.024 -173.8)" fill="#afd8f9"/>
          </g>
        </g>
        <g id="Group_407" data-name="Group 407" transform="translate(0 60.558)">
          <path id="Path_291" data-name="Path 291" d="M39.133,121.133A2.039,2.039,0,0,0,37.1,119.1H9.148a9.148,9.148,0,0,0,0,18.3,2.033,2.033,0,0,0,0-4.066,5.082,5.082,0,1,1,0-10.164H37.1A2.039,2.039,0,0,0,39.133,121.133Z" transform="translate(0 -119.1)" fill="#267dce"/>
        </g>
        <g id="Group_408" data-name="Group 408" transform="translate(4.574 74.789)">
          <path id="Path_292" data-name="Path 292" d="M43.559,163.363a2.039,2.039,0,0,0-2.033-2.033H18.148a5.082,5.082,0,0,1,0-10.164H41.526a2.033,2.033,0,1,0,0-4.066H18.148a9.148,9.148,0,0,0,0,18.3H41.526A2.039,2.039,0,0,0,43.559,163.363Z" transform="translate(-9 -147.1)" fill="#267dce"/>
        </g>
        <path id="Path_293" data-name="Path 293" d="M95.055,43.578H82.3a12.386,12.386,0,0,1-3.049-.254,5.7,5.7,0,0,1-1.067-.661c-.813-.508-1.067-.813-1.88-1.372A44.9,44.9,0,0,1,65.73,30.821a35.036,35.036,0,0,1-6.454-16.365,34.245,34.245,0,0,1-.051-3.964c.1-3.761.254-8.03-3.608-9.91C50.839-1.807,45.4,2.869,42.2,8.561a17.969,17.969,0,0,0-.966,1.982,27.149,27.149,0,0,0-1.271,4.218,44.477,44.477,0,0,0-.407,15.5c.661,4.066,1.321,7.115,1.83,9.555.508,2.541.915,4.422,1.118,6.3H19.024a9.272,9.272,0,0,0-9.351,8.691A8.989,8.989,0,0,0,11.2,60.3H10.181a9.124,9.124,0,0,0-9.1,9.605,9.247,9.247,0,0,0,6.4,8.284,8.65,8.65,0,0,0-1.83,5.946,9.2,9.2,0,0,0,9.351,8.691h.457A8.894,8.894,0,0,0,14.3,97.3v.559a9.13,9.13,0,0,0,9.2,8.437H62.833c2.9,0,5.082-2.9,6.81-5.184.407-.508.712-.966,1.016-1.321.051-.051.051-.1.1-.1l.559-.762a4.814,4.814,0,0,1,3.863-1.931H95.055a2.039,2.039,0,0,0,2.033-2.033v-49.3A2.05,2.05,0,0,0,95.055,43.578Zm-2.033,49.3H75.183a8.881,8.881,0,0,0-7.115,3.608l-.508.712a17.377,17.377,0,0,0-1.118,1.423c-.813,1.067-2.694,3.558-3.608,3.558H23.5a5.032,5.032,0,0,1-5.133-4.625,4.935,4.935,0,0,1,3.049-4.879,2.033,2.033,0,0,0-.762-3.913H14.959a5.274,5.274,0,0,1-5.286-4.828A4.933,4.933,0,0,1,11.1,80.17a5.039,5.039,0,0,1,3.659-1.575,2.033,2.033,0,0,0,0-4.066H10.385A5.274,5.274,0,0,1,5.1,69.7,4.933,4.933,0,0,1,6.522,65.94a5.039,5.039,0,0,1,3.659-1.575h8.64a2.033,2.033,0,0,0,0-4.066,4.956,4.956,0,0,1-3.659-1.575,5.129,5.129,0,0,1-1.423-3.761,5.274,5.274,0,0,1,5.286-4.828H44.69a2.035,2.035,0,0,0,1.474-.61,1.809,1.809,0,0,0,.559-1.474,49.473,49.473,0,0,0-1.372-9.1c-.508-2.389-1.118-5.387-1.779-9.4a40.321,40.321,0,0,1,.407-14.129A22.437,22.437,0,0,1,45.3,11.356c.152-.3.3-.61.457-.864,2.236-3.913,5.9-7.369,8.132-6.2,1.372.661,1.423,2.49,1.321,6.15a32.934,32.934,0,0,0,.051,4.472A38.774,38.774,0,0,0,60.9,30.872a44.928,44.928,0,0,0,2.8,4.066,48.457,48.457,0,0,0,9.656,9.3,12.143,12.143,0,0,0,7.877,3.405H93.022Z" transform="translate(-0.525 0.057)" fill="#267dce"/>
      </g>
      <g id="Group_414" data-name="Group 414" transform="translate(91.48 30.421)">
        <g id="Group_412" data-name="Group 412" transform="translate(2.033 2.033)">
          <g id="Group_410" data-name="Group 410">
            <path id="Path_294" data-name="Path 294" d="M237.363,134.951V66.341a2.516,2.516,0,0,0-2.541-2.541h-40.4A10.433,10.433,0,0,0,184,74.219v52.855a10.433,10.433,0,0,0,10.419,10.419h40.4A2.516,2.516,0,0,0,237.363,134.951Z" transform="translate(-184 -63.8)" fill="#afd8f9"/>
          </g>
          <g id="Group_411" data-name="Group 411">
            <path id="Path_295" data-name="Path 295" d="M237.363,126.82V66.341a2.516,2.516,0,0,0-2.541-2.541h-40.4A10.433,10.433,0,0,0,184,74.219v44.724a10.433,10.433,0,0,0,10.419,10.419h40.4A2.516,2.516,0,0,0,237.363,126.82Z" transform="translate(-184 -63.8)" fill="#e9f6ff"/>
          </g>
        </g>
        <g id="Group_413" data-name="Group 413">
          <path id="Path_296" data-name="Path 296" d="M232.855,137.558h-40.4A12.472,12.472,0,0,1,180,125.107V72.251A12.472,12.472,0,0,1,192.451,59.8h40.4a4.555,4.555,0,0,1,4.574,4.574v68.61A4.555,4.555,0,0,1,232.855,137.558Zm-48.789-12.451a8.394,8.394,0,0,0,8.386,8.386h40.4a.48.48,0,0,0,.508-.508V64.374a.48.48,0,0,0-.508-.508h-40.4a8.394,8.394,0,0,0-8.386,8.386Z" transform="translate(-180 -59.8)" fill="#267dce"/>
        </g>
      </g>
    </g>
    <g id="Group_418" data-name="Group 418" transform="translate(211.102 142.072)">
      <g id="Group_193" data-name="Group 193" transform="translate(9.928 23.332)">
        <path id="Path_145" data-name="Path 145" d="M349.738,99.708l4.7,2.558a.649.649,0,0,1,0,1.146l-4.7,2.558a.892.892,0,0,0-.267.267l-2.558,4.7a.649.649,0,0,1-1.146,0l-2.558-4.7a.892.892,0,0,0-.267-.267l-4.7-2.558a.649.649,0,0,1,0-1.146l4.7-2.558a.892.892,0,0,0,.267-.267l2.558-4.7a.649.649,0,0,1,1.146,0l2.558,4.7A.892.892,0,0,0,349.738,99.708Z" transform="translate(-337.9 -94.4)" fill="#fff"/>
      </g>
      <g id="Group_194" data-name="Group 194" transform="translate(9.203 22.606)">
        <path id="Path_146" data-name="Path 146" d="M345.165,110.829a1.369,1.369,0,0,1-1.222-.726l-2.558-4.659-4.659-2.558a1.392,1.392,0,0,1,0-2.444l4.659-2.558,2.558-4.659a1.392,1.392,0,0,1,2.444,0l2.558,4.659,4.659,2.558a1.392,1.392,0,0,1,0,2.444l-4.659,2.558-2.558,4.659A1.368,1.368,0,0,1,345.165,110.829Zm-7.637-9.165,4.582,2.482a1.206,1.206,0,0,1,.535.535l2.482,4.582,2.482-4.582a1.206,1.206,0,0,1,.535-.535l4.582-2.482-4.582-2.482a1.206,1.206,0,0,1-.535-.535l-2.482-4.582-2.482,4.582a1.206,1.206,0,0,1-.535.535Z" transform="translate(-336 -92.5)" fill="#267dce"/>
      </g>
      <g id="Group_195" data-name="Group 195" transform="translate(23.675 5.002)">
        <path id="Path_147" data-name="Path 147" d="M385.738,51.708l4.7,2.558a.649.649,0,0,1,0,1.146l-4.7,2.558a.892.892,0,0,0-.267.267l-2.558,4.7a.649.649,0,0,1-1.146,0l-2.558-4.7a.892.892,0,0,0-.267-.267l-4.7-2.558a.649.649,0,0,1,0-1.146l4.7-2.558a.892.892,0,0,0,.267-.267l2.558-4.7a.649.649,0,0,1,1.146,0l2.558,4.7A.892.892,0,0,0,385.738,51.708Z" transform="translate(-373.9 -46.4)" fill="#e9f6ff"/>
      </g>
      <g id="Group_196" data-name="Group 196" transform="translate(22.95 4.277)">
        <path id="Path_148" data-name="Path 148" d="M381.165,62.829a1.368,1.368,0,0,1-1.222-.726l-2.558-4.659-4.659-2.558a1.392,1.392,0,0,1,0-2.444l4.659-2.558,2.558-4.659a1.392,1.392,0,0,1,2.444,0l2.558,4.659,4.659,2.558a1.392,1.392,0,0,1,0,2.444l-4.659,2.558L382.387,62.1A1.368,1.368,0,0,1,381.165,62.829Zm-7.637-9.165,4.582,2.482a1.206,1.206,0,0,1,.535.535l2.482,4.582,2.482-4.582a1.206,1.206,0,0,1,.535-.535l4.582-2.482-4.506-2.482a1.206,1.206,0,0,1-.535-.535L381.2,46.066l-2.482,4.582a1.206,1.206,0,0,1-.535.535Z" transform="translate(-372 -44.5)" fill="#267dce"/>
      </g>
      <g id="Group_197" data-name="Group 197" transform="translate(0.821 0.897)">
        <path id="Path_149" data-name="Path 149" d="M327.663,41.741l5.384,2.94a.757.757,0,0,1,0,1.337l-5.384,2.94a1.162,1.162,0,0,0-.305.305l-2.94,5.384a.757.757,0,0,1-1.337,0l-2.94-5.384a1.163,1.163,0,0,0-.305-.305l-5.384-2.94a.757.757,0,0,1,0-1.337l5.384-2.94a1.163,1.163,0,0,0,.305-.305l2.94-5.384a.757.757,0,0,1,1.337,0l2.94,5.384A1.162,1.162,0,0,0,327.663,41.741Z" transform="translate(-314.05 -35.65)" fill="#afd8f9"/>
      </g>
      <g id="Group_198" data-name="Group 198">
        <path id="Path_150" data-name="Path 150" d="M322.439,54.379a1.622,1.622,0,0,1-1.413-.84l-2.94-5.346-5.346-2.94a1.608,1.608,0,0,1,0-2.826l5.346-2.94,2.94-5.346a1.608,1.608,0,0,1,1.413-.84,1.578,1.578,0,0,1,1.413.84l2.94,5.346,5.346,2.94a1.608,1.608,0,0,1,0,2.826l-5.346,2.94-2.94,5.346A1.622,1.622,0,0,1,322.439,54.379Zm-8.745-10.5,5.231,2.864a1.765,1.765,0,0,1,.649.649l2.864,5.231,2.864-5.231a1.764,1.764,0,0,1,.649-.649l5.231-2.864-5.231-2.864a1.764,1.764,0,0,1-.649-.649l-2.864-5.231-2.864,5.27a1.764,1.764,0,0,1-.649.649Z" transform="translate(-311.9 -33.3)" fill="#267dce"/>
      </g>
    </g>
    <g id="Group_419" data-name="Group 419" transform="translate(92 269.269)">
      <g id="Group_237" data-name="Group 237" transform="translate(9.89 23.293)">
        <path id="Path_175" data-name="Path 175" d="M37.738,432.708l4.7,2.559a.649.649,0,0,1,0,1.146l-4.7,2.558a.892.892,0,0,0-.267.267l-2.558,4.7a.649.649,0,0,1-1.146,0l-2.558-4.7a.892.892,0,0,0-.267-.267l-4.7-2.558a.649.649,0,0,1,0-1.146l4.7-2.559a.892.892,0,0,0,.267-.267l2.558-4.7a.649.649,0,0,1,1.146,0l2.558,4.7A.892.892,0,0,0,37.738,432.708Z" transform="translate(-25.9 -427.4)" fill="#fff"/>
      </g>
      <g id="Group_238" data-name="Group 238" transform="translate(9.165 22.568)">
        <path id="Path_176" data-name="Path 176" d="M33.165,443.829a1.368,1.368,0,0,1-1.222-.725l-2.558-4.659-4.659-2.558a1.392,1.392,0,0,1,0-2.444l4.659-2.558,2.558-4.659a1.392,1.392,0,0,1,2.444,0l2.558,4.659,4.659,2.558a1.392,1.392,0,0,1,0,2.444l-4.659,2.558L34.387,443.1A1.368,1.368,0,0,1,33.165,443.829Zm-7.637-9.165,4.582,2.482a1.206,1.206,0,0,1,.535.535l2.482,4.582,2.482-4.582a1.206,1.206,0,0,1,.535-.535l4.582-2.482-4.506-2.482a1.206,1.206,0,0,1-.535-.535L33.2,427.066l-2.482,4.582a1.206,1.206,0,0,1-.535.535Z" transform="translate(-24 -425.5)" fill="#267dce"/>
      </g>
      <g id="Group_239" data-name="Group 239" transform="translate(23.637 4.964)">
        <path id="Path_177" data-name="Path 177" d="M73.738,384.708l4.7,2.558a.649.649,0,0,1,0,1.146l-4.7,2.558a.891.891,0,0,0-.267.267l-2.558,4.7a.649.649,0,0,1-1.146,0l-2.558-4.7a.892.892,0,0,0-.267-.267l-4.7-2.558a.649.649,0,0,1,0-1.146l4.7-2.558a.891.891,0,0,0,.267-.267l2.558-4.7a.649.649,0,0,1,1.146,0l2.558,4.7A.892.892,0,0,0,73.738,384.708Z" transform="translate(-61.9 -379.4)" fill="#e9f6ff"/>
      </g>
      <g id="Group_240" data-name="Group 240" transform="translate(22.912 4.239)">
        <path id="Path_178" data-name="Path 178" d="M69.165,395.829a1.368,1.368,0,0,1-1.222-.726l-2.558-4.659-4.659-2.559a1.392,1.392,0,0,1,0-2.444l4.659-2.558,2.558-4.659a1.392,1.392,0,0,1,2.444,0l2.558,4.659,4.659,2.558a1.392,1.392,0,0,1,0,2.444l-4.659,2.559L70.387,395.1A1.368,1.368,0,0,1,69.165,395.829Zm-7.637-9.165,4.582,2.482a1.206,1.206,0,0,1,.535.535l2.482,4.582,2.482-4.582a1.206,1.206,0,0,1,.535-.535l4.582-2.482-4.506-2.482a1.206,1.206,0,0,1-.535-.535L69.2,379.066l-2.482,4.582a1.206,1.206,0,0,1-.535.535Z" transform="translate(-60 -377.5)" fill="#267dce"/>
      </g>
      <g id="Group_241" data-name="Group 241" transform="translate(0.783 0.859)">
        <path id="Path_179" data-name="Path 179" d="M15.663,374.741l5.384,2.94a.757.757,0,0,1,0,1.336l-5.384,2.94a1.162,1.162,0,0,0-.305.305l-2.94,5.384a.757.757,0,0,1-1.337,0l-2.94-5.384a1.162,1.162,0,0,0-.305-.305l-5.384-2.94a.757.757,0,0,1,0-1.336l5.384-2.94a1.162,1.162,0,0,0,.305-.305l2.94-5.384a.757.757,0,0,1,1.337,0l2.94,5.384A1.162,1.162,0,0,0,15.663,374.741Z" transform="translate(-2.05 -368.65)" fill="#afd8f9"/>
      </g>
      <g id="Group_242" data-name="Group 242">
        <path id="Path_180" data-name="Path 180" d="M10.5,387.44a1.622,1.622,0,0,1-1.413-.84l-2.94-5.346L.8,378.314a1.558,1.558,0,0,1-.8-1.375,1.622,1.622,0,0,1,.84-1.413l5.346-2.94,2.94-5.346a1.608,1.608,0,0,1,1.413-.84,1.578,1.578,0,0,1,1.413.84l2.94,5.346,5.346,2.94a1.608,1.608,0,0,1,0,2.826l-5.346,2.94-2.94,5.346A1.782,1.782,0,0,1,10.5,387.44Zm-8.745-10.5L6.988,379.8a1.765,1.765,0,0,1,.649.649l2.864,5.232,2.864-5.232a1.765,1.765,0,0,1,.649-.649l5.231-2.864-5.231-2.864a1.764,1.764,0,0,1-.649-.649L10.5,368.195l-2.864,5.27a1.764,1.764,0,0,1-.649.649Z" transform="translate(0 -366.4)" fill="#267dce"/>
      </g>
    </g>
  </g>
</svg>
