<svg xmlns="http://www.w3.org/2000/svg" xmlns:xlink="http://www.w3.org/1999/xlink" width="192.895" height="133.612" viewBox="0 0 192.895 133.612">
  <defs>
    <linearGradient id="linear-gradient" x2="0" y2="1" gradientUnits="objectBoundingBox">
      <stop offset="0" stop-color="#45c1e3"/>
      <stop offset="1" stop-color="#c782d8"/>
    </linearGradient>
  </defs>
  <g id="Logo" transform="translate(-110 -178.94)">
    <path id="Path_274" data-name="Path 274" d="M94.277,39.006c-4.355-7.241-12.852-11.395-23.333-11.395-7.488,0-14.2,3.287-19.693,7.449-4.9-5.427-14.374-10.382-24.488-10.118-6.532.17-15.8,2.59-22.847,13.167A20.933,20.933,0,0,0,.607,55.216C3.321,66.385,14.682,74.685,19.458,77.746v27.643a4.086,4.086,0,0,0,4.084,4.085H77.524a4.085,4.085,0,0,0,4.085-4.085V75.65c4.923-2.473,9.067-5.878,11.543-10.532C98.244,55.544,98.642,46.272,94.277,39.006ZM85.944,61.288C79.181,74.011,50.313,74.525,39.758,73.652a4.083,4.083,0,0,0-.678,8.138c.453.039,3.533.279,8.041.279,6.872,0,17.058-.567,26.324-3.272V101.31H27.624V75.451a4.089,4.089,0,0,0-2.1-3.569c-.143-.08-14.459-8.163-16.985-18.608a12.911,12.911,0,0,1,2.17-10.632c4.1-6.154,9.573-9.361,16.265-9.535,7.287-.171,14.638,3.457,18.168,7.351a68.877,68.877,0,0,0-9.213,11.557,4.083,4.083,0,0,0,6.981,4.236c.123-.2,12.661-20.469,28.04-20.469,7.538,0,13.491,2.712,16.329,7.434C90.109,47.923,89.634,54.34,85.944,61.288Z" transform="translate(157 154.007)" fill="url(#linear-gradient)"/>
    <path id="Path_329" data-name="Path 329" d="M-95.436,0V-26.607h9.686A12.1,12.1,0,0,1-78.9-24.975a5.252,5.252,0,0,1,2.394,4.6,5.446,5.446,0,0,1-1.457,3.767,7.652,7.652,0,0,1-3.72,2.245v.074a7.373,7.373,0,0,1,4.537,2.1,5.864,5.864,0,0,1,1.7,4.249,7.1,7.1,0,0,1-2.616,5.8A10.948,10.948,0,0,1-85.212,0Zm5.993-22.191v6.309h2.635a4.392,4.392,0,0,0,2.922-.9,3.067,3.067,0,0,0,1.067-2.477q0-2.932-4.379-2.932Zm0,10.762v7.014H-86.2a5,5,0,0,0,3.256-.965,3.223,3.223,0,0,0,1.178-2.635,3.007,3.007,0,0,0-1.16-2.5,5.13,5.13,0,0,0-3.238-.909ZM-62.594.464A10.214,10.214,0,0,1-70.062-2.2a9.653,9.653,0,0,1-2.718-7.227A9.653,9.653,0,0,1-69.96-16.8a10.657,10.657,0,0,1,7.626-2.663A10.09,10.09,0,0,1-54.913-16.8a9.465,9.465,0,0,1,2.69,7.042A10.047,10.047,0,0,1-55-2.282,10.327,10.327,0,0,1-62.594.464Zm.148-15.437a3.911,3.911,0,0,0-3.229,1.429A6.3,6.3,0,0,0-66.825-9.5q0,5.474,4.416,5.474,4.212,0,4.212-5.622Q-58.2-14.974-62.446-14.974ZM-39.364.464A10.214,10.214,0,0,1-46.832-2.2,9.653,9.653,0,0,1-49.55-9.426,9.653,9.653,0,0,1-46.73-16.8,10.657,10.657,0,0,1-39.1-19.464,10.09,10.09,0,0,1-31.682-16.8a9.465,9.465,0,0,1,2.69,7.042,10.047,10.047,0,0,1-2.774,7.478A10.327,10.327,0,0,1-39.364.464Zm.148-15.437a3.911,3.911,0,0,0-3.229,1.429A6.3,6.3,0,0,0-43.594-9.5q0,5.474,4.416,5.474,4.212,0,4.212-5.622Q-34.966-14.974-39.215-14.974ZM-6.151,0h-7.032L-19.25-9.426h-.074V0h-5.863V-28.129h5.863v17.905h.074L-13.591-19h6.958l-6.81,8.925ZM25.8-21.728H18.211V0H12.2V-21.728H4.648v-4.88H25.8ZM41.386,0H35.838V-2.728h-.074A6.192,6.192,0,0,1,30.1.464,5.92,5.92,0,0,1,25.754-1.1a5.618,5.618,0,0,1-1.586-4.184q0-5.529,6.55-6.383l5.158-.687q0-3.117-3.377-3.117a11.527,11.527,0,0,0-6.457,2.022v-4.416a14.526,14.526,0,0,1,3.349-1.113,17.605,17.605,0,0,1,3.869-.482q8.127,0,8.127,8.108ZM35.875-7.719V-9l-3.451.445q-2.857.371-2.857,2.579a2.131,2.131,0,0,0,.7,1.642,2.674,2.674,0,0,0,1.883.64,3.471,3.471,0,0,0,2.69-1.141A4.122,4.122,0,0,0,35.875-7.719ZM51.962-2.208h-.074V0H46.025V-28.129h5.863v11.986h.074a6.957,6.957,0,0,1,6.179-3.321A6.78,6.78,0,0,1,63.8-16.94a10.882,10.882,0,0,1,1.985,6.9,11.784,11.784,0,0,1-2.319,7.626,7.555,7.555,0,0,1-6.2,2.876A5.986,5.986,0,0,1,51.962-2.208ZM51.8-10.224v1.948a4.447,4.447,0,0,0,1.058,3.043,3.441,3.441,0,0,0,2.709,1.206A3.6,3.6,0,0,0,58.67-5.576a7.481,7.481,0,0,0,1.1-4.388,5.952,5.952,0,0,0-1.011-3.683,3.412,3.412,0,0,0-2.885-1.327,3.727,3.727,0,0,0-2.922,1.317A5,5,0,0,0,51.8-10.224ZM75.453,0H69.589V-28.129h5.863ZM97.458-7.83H85.064q.3,4.138,5.214,4.138a10.179,10.179,0,0,0,5.511-1.484v4.23A14.477,14.477,0,0,1,88.942.464,9.638,9.638,0,0,1,81.8-2.087,9.639,9.639,0,0,1,79.256-9.2,10.168,10.168,0,0,1,82-16.7a9.149,9.149,0,0,1,6.754-2.765A8.3,8.3,0,0,1,95.186-17a9.5,9.5,0,0,1,2.273,6.7Zm-5.437-3.6q0-4.082-3.3-4.082a3.153,3.153,0,0,0-2.44,1.169,5.306,5.306,0,0,0-1.252,2.913Z" transform="translate(205.436 312.088)" fill="#394b56"/>
  </g>
</svg>
