<svg xmlns="http://www.w3.org/2000/svg" xmlns:xlink="http://www.w3.org/1999/xlink" width="97.284" height="84.542" viewBox="0 0 97.284 84.542">
  <defs>
    <linearGradient id="linear-gradient" x2="0" y2="1" gradientUnits="objectBoundingBox">
      <stop offset="0" stop-color="#45c1e3"/>
      <stop offset="1" stop-color="#c782d8"/>
    </linearGradient>
  </defs>
  <path id="logo-icon" d="M94.277,39.006c-4.355-7.241-12.852-11.395-23.333-11.395-7.488,0-14.2,3.287-19.693,7.449-4.9-5.427-14.374-10.382-24.488-10.118-6.532.17-15.8,2.59-22.847,13.167A20.933,20.933,0,0,0,.607,55.216C3.321,66.385,14.682,74.685,19.458,77.746v27.643a4.086,4.086,0,0,0,4.084,4.085H77.524a4.085,4.085,0,0,0,4.085-4.085V75.65c4.923-2.473,9.067-5.878,11.543-10.532C98.244,55.544,98.642,46.272,94.277,39.006ZM85.944,61.288C79.181,74.011,50.313,74.525,39.758,73.652a4.083,4.083,0,0,0-.678,8.138c.453.039,3.533.279,8.041.279,6.872,0,17.058-.567,26.324-3.272V101.31H27.624V75.451a4.089,4.089,0,0,0-2.1-3.569c-.143-.08-14.459-8.163-16.985-18.608a12.911,12.911,0,0,1,2.17-10.632c4.1-6.154,9.573-9.361,16.265-9.535,7.287-.171,14.638,3.457,18.168,7.351a68.877,68.877,0,0,0-9.213,11.557,4.083,4.083,0,0,0,6.981,4.236c.123-.2,12.661-20.469,28.04-20.469,7.538,0,13.491,2.712,16.329,7.434C90.109,47.923,89.634,54.34,85.944,61.288Z" transform="translate(0 -24.932)" fill="url(#linear-gradient)"/>
</svg>
