<svg xmlns="http://www.w3.org/2000/svg" width="6.55" height="25.258" viewBox="0 0 6.55 25.258">
  <g id="more" transform="translate(173.639) rotate(90)">
    <path id="Path_333" data-name="Path 333" d="M3.275,173.639a3.275,3.275,0,1,1,3.275-3.275A3.279,3.279,0,0,1,3.275,173.639Zm0-5.348a2.072,2.072,0,1,0,2.073,2.072A2.075,2.075,0,0,0,3.275,168.292Z"/>
    <path id="Path_334" data-name="Path 334" d="M170.364,173.64a3.275,3.275,0,1,1,3.275-3.275A3.279,3.279,0,0,1,170.364,173.64Zm0-5.348a2.072,2.072,0,1,0,2.072,2.072A2.075,2.075,0,0,0,170.364,168.293Z" transform="translate(-157.735 -0.001)"/>
    <path id="Path_335" data-name="Path 335" d="M337.449,173.64a3.275,3.275,0,1,1,3.275-3.275A3.279,3.279,0,0,1,337.449,173.64Zm0-5.348a2.072,2.072,0,1,0,2.072,2.072A2.075,2.075,0,0,0,337.449,168.293Z" transform="translate(-315.466 -0.001)"/>
  </g>
</svg>
