<svg xmlns="http://www.w3.org/2000/svg" width="95.223" height="117.598" viewBox="0 0 95.223 117.598"><g transform="translate(-11.187)"><g transform="translate(74.417 0) rotate(90)"><g transform="translate(2.756 5.512)" fill="#e3edf3" stroke="#6b7377" stroke-width="2"><rect width="13.781" height="19.293" stroke="none"/><rect x="1" y="1" width="11.781" height="17.293" fill="none"/></g><rect width="4.594" height="31.237" rx="2.297" fill="#6b7377"/><g transform="translate(117.598 31.237) rotate(180)"><g transform="translate(2.756 6.431)" fill="#e3edf3" stroke="#6b7377" stroke-width="2"><rect width="13.781" height="19.293" stroke="none"/><rect x="1" y="1" width="11.781" height="17.293" fill="none"/></g><rect width="4.594" height="31.237" rx="2.297" fill="#6b7377"/></g></g><g transform="translate(9.187 9.187)"><rect width="95.223" height="95.223" rx="47.612" transform="translate(2 2)" fill="#267dce"/><g transform="translate(58.832 9.187) rotate(90)"><g transform="translate(3)"><g transform="translate(0 2.783)"><circle cx="6.123" cy="6.123" r="6.123" transform="translate(0 0)" fill="#fff"/><path d="M1.878,10.535A6.135,6.135,0,0,1,.506,8.563,6.122,6.122,0,0,1,9.622,1.1a6.167,6.167,0,0,1,.916.783,6.123,6.123,0,0,0-8.66,8.654Z" transform="translate(0)" fill="#f5f4f4"/><path d="M1.71,7.4A4.1,4.1,0,0,1,.467,5.98,4.082,4.082,0,0,1,6.926,1.154,4.082,4.082,0,0,0,1.711,7.4Z" transform="translate(2.041 2.041)" fill="#f5f4f4"/><circle cx="4.082" cy="4.082" r="4.082" transform="translate(2.119 2.041)" fill="#f5f4f4" opacity="0.17"/></g><g transform="translate(9.912) rotate(90)"><path d="M.9,0C.516,0,0,1.047,0,1.847a.951.951,0,0,0,.44.947.58.58,0,0,1,.314.573L.375,7.241a.532.532,0,1,0,1.06,0L1.055,3.367a.581.581,0,0,1,.314-.573.951.951,0,0,0,.44-.947C1.809,1.047,1.314,0,.9,0Z" fill="#fff"/><path d="M1.687,0a.13.13,0,0,0-.13.13v1.6a.13.13,0,1,1-.261,0V.13A.13.13,0,0,0,1.166,0h0a.13.13,0,0,0-.13.13v1.6a.13.13,0,0,1-.261,0V.13A.13.13,0,0,0,.645,0h0a.13.13,0,0,0-.13.13v1.6a.13.13,0,0,1-.261,0V.13A.13.13,0,0,0,.123,0,.123.123,0,0,0,0,.123V1.847a.951.951,0,0,0,.44.947.58.58,0,0,1,.314.573L.375,7.241a.532.532,0,1,0,1.06,0L1.055,3.367a.581.581,0,0,1,.314-.573.951.951,0,0,0,.44-.947V.123A.123.123,0,0,0,1.687,0Z" transform="translate(16.082)" fill="#fff"/></g></g><g transform="translate(65.905)"><g transform="translate(0 2.783)"><circle cx="6.123" cy="6.123" r="6.123" transform="translate(0 0)" fill="#fff"/><path d="M1.878,10.535A6.135,6.135,0,0,1,.506,8.563,6.122,6.122,0,0,1,9.622,1.1a6.167,6.167,0,0,1,.916.783,6.123,6.123,0,0,0-8.66,8.654Z" transform="translate(0)" fill="#f5f4f4"/><path d="M1.71,7.4A4.1,4.1,0,0,1,.467,5.98,4.082,4.082,0,0,1,6.926,1.154,4.082,4.082,0,0,0,1.711,7.4Z" transform="translate(2.041 2.041)" fill="#f5f4f4"/><circle cx="4.082" cy="4.082" r="4.082" transform="translate(2.119 2.041)" fill="#f5f4f4" opacity="0.17"/></g><g transform="translate(9.912) rotate(90)"><path d="M.9,0C.516,0,0,1.047,0,1.847a.951.951,0,0,0,.44.947.58.58,0,0,1,.314.573L.375,7.241a.532.532,0,1,0,1.06,0L1.055,3.367a.581.581,0,0,1,.314-.573.951.951,0,0,0,.44-.947C1.809,1.047,1.314,0,.9,0Z" fill="#fff"/><path d="M1.687,0a.13.13,0,0,0-.13.13v1.6a.13.13,0,1,1-.261,0V.13A.13.13,0,0,0,1.166,0h0a.13.13,0,0,0-.13.13v1.6a.13.13,0,0,1-.261,0V.13A.13.13,0,0,0,.645,0h0a.13.13,0,0,0-.13.13v1.6a.13.13,0,0,1-.261,0V.13A.13.13,0,0,0,.123,0,.123.123,0,0,0,0,.123V1.847a.951.951,0,0,0,.44.947.58.58,0,0,1,.314.573L.375,7.241a.532.532,0,1,0,1.06,0L1.055,3.367a.581.581,0,0,1,.314-.573.951.951,0,0,0,.44-.947V.123A.123.123,0,0,0,1.687,0Z" transform="translate(16.082)" fill="#fff"/></g></g></g></g></g></svg>