<svg xmlns="http://www.w3.org/2000/svg" width="179.704" height="200" viewBox="0 0 179.704 200">
  <g id="dscover" transform="translate(0.1)">
    <g id="Group_146" data-name="Group 146" transform="translate(86.731 1.579)">
      <path id="Path_106" data-name="Path 106" d="M220,4h-.2c21.718,5.528,31.984,25.271,34.353,44.62,1.856,15.163,1.185,36.723-9.872,56.466a79.552,79.552,0,0,0-9.951,29.615h10.03c4.5-11.925,10.859-24.087,19.546-31.194A59.421,59.421,0,0,0,220,4Z" transform="translate(-219.8 -4)" fill="#afd8f9"/>
    </g>
    <g id="Group_147" data-name="Group 147" transform="translate(86.731 1.579)">
      <path id="Path_107" data-name="Path 107" d="M219.958,4H219.8c19.625,5.528,28.9,25.271,31.037,44.62,1.658,15.163,1.066,36.723-8.924,56.466a86.4,86.4,0,0,0-9,29.615h9.082c4.067-11.925,9.832-24.087,17.651-31.194A62.889,62.889,0,0,0,273.7,63.427C273.7,30.614,249.652,4,219.958,4Z" transform="translate(-219.8 -4)" fill="#e9f6ff"/>
    </g>
    <g id="Group_150" data-name="Group 150" transform="translate(27.264 1.382)">
      <g id="Group_148" data-name="Group 148" transform="translate(59.269)">
        <path id="Path_108" data-name="Path 108" d="M244.058,134.6H219.5a.187.187,0,0,1-.2-.2V3.7a.187.187,0,0,1,.2-.2h.2a59.617,59.617,0,0,1,44.028,99.822c-7.424,6.081-13.978,16.584-19.506,31.116C244.177,134.556,244.137,134.6,244.058,134.6Zm-24.363-.395H243.9c5.528-14.571,12.083-25.035,19.546-31.155A59.227,59.227,0,0,0,219.695,3.895Z" transform="translate(-219.3 -3.5)"/>
      </g>
      <g id="Group_149" data-name="Group 149" transform="translate(0 0)">
        <path id="Path_109" data-name="Path 109" d="M128.667,134.6H104.3a.217.217,0,0,1-.2-.118c-5.647-14.571-12.122-25.035-19.269-31.115A59.628,59.628,0,0,1,128.627,3.5c.039,0,.118.039.158.039.039.039.039.079.039.158V134.4C128.864,134.517,128.785,134.6,128.667,134.6Zm-24.205-.395h24.008V3.895a59.225,59.225,0,0,0-43.317,99.191C92.26,109.166,98.776,119.63,104.462,134.2Z" transform="translate(-69.2 -3.5)"/>
      </g>
    </g>
    <g id="Group_151" data-name="Group 151" transform="translate(27.501 1.579)">
      <path id="Path_110" data-name="Path 110" d="M94.677,48.62C97.046,29.271,107.312,9.528,129.03,4a59.421,59.421,0,0,0-43.672,99.506c8.332,7.108,14.689,19.269,19.348,31.194H114.5a79.552,79.552,0,0,0-9.951-29.615C93.492,85.343,92.821,63.783,94.677,48.62Z" transform="translate(-69.8 -4)" fill="#afd8f9"/>
    </g>
    <g id="Group_152" data-name="Group 152" transform="translate(33.227 1.579)">
      <path id="Path_111" data-name="Path 111" d="M106.768,48.62C108.9,29.271,118.18,9.528,137.8,4c-29.576.118-53.5,26.693-53.5,59.427a62.889,62.889,0,0,0,14.057,40.079c7.542,7.108,13.268,19.269,17.453,31.194h8.845a85.506,85.506,0,0,0-9-29.615C105.7,85.343,105.109,63.783,106.768,48.62Z" transform="translate(-84.3 -4)" fill="#e9f6ff"/>
    </g>
    <g id="Group_155" data-name="Group 155" transform="translate(47.83 1.579)" opacity="0.15">
      <g id="Group_153" data-name="Group 153" transform="translate(42.85)">
        <path id="Path_112" data-name="Path 112" d="M264.153,48.62C261.784,29.271,251.518,9.528,229.8,4h0V134.7h14.531a79.551,79.551,0,0,1,9.951-29.615C265.338,85.343,266.009,63.783,264.153,48.62Z" transform="translate(-229.8 -4)" fill="#afd8f9"/>
      </g>
      <g id="Group_154" data-name="Group 154" transform="translate(0 0.197)">
        <path id="Path_113" data-name="Path 113" d="M122.079,49.12c2.369-19.348,12.636-39.092,34.353-44.62h0V135.2H141.9a79.552,79.552,0,0,0-9.951-29.615C120.894,85.843,120.223,64.283,122.079,49.12Z" transform="translate(-121.282 -4.5)" fill="#afd8f9"/>
      </g>
    </g>
    <g id="Group_160" data-name="Group 160" transform="translate(51.581 1.579)">
      <g id="Group_156" data-name="Group 156">
        <path id="Path_114" data-name="Path 114" d="M165.932,4h0c-21.718,5.528-31.984,25.271-34.353,44.62-1.856,15.163-1.185,36.723,9.872,56.466A79.551,79.551,0,0,1,151.4,134.7h14.531Z" transform="translate(-130.782 -4)" fill="#afd8f9"/>
      </g>
      <g id="Group_157" data-name="Group 157" transform="translate(5.334)">
        <path id="Path_115" data-name="Path 115" d="M174.106,4h0c-18.44,5.528-27.127,25.271-29.141,44.62-1.579,15.163-.987,36.723,8.371,56.466a90.963,90.963,0,0,1,8.45,29.615h12.32V4Z" transform="translate(-144.289 -4)" fill="#fff"/>
      </g>
      <g id="Group_158" data-name="Group 158" transform="translate(35.15)">
        <path id="Path_116" data-name="Path 116" d="M254.153,48.62C251.784,29.271,241.518,9.528,219.8,4h0V134.7h14.531a79.551,79.551,0,0,1,9.951-29.615C255.338,85.343,256.009,63.783,254.153,48.62Z" transform="translate(-219.8 -4)" fill="#afd8f9"/>
      </g>
      <g id="Group_159" data-name="Group 159" transform="translate(35.15)">
        <path id="Path_117" data-name="Path 117" d="M248.941,48.62C246.927,29.271,238.24,9.528,219.8,4h0V134.7h12.32a89.963,89.963,0,0,1,8.45-29.615C249.928,85.343,250.521,63.783,248.941,48.62Z" transform="translate(-219.8 -4)" fill="#fff"/>
      </g>
    </g>
    <g id="Group_165" data-name="Group 165" transform="translate(25.961)">
      <g id="Group_161" data-name="Group 161" transform="translate(59.182 0)">
        <path id="Path_118" data-name="Path 118" d="M241.927,133.86H231.9a1.712,1.712,0,0,1-1.185-.513,1.542,1.542,0,0,1-.395-1.224,80.973,80.973,0,0,1,10.148-30.207C252.233,80.908,251.6,58.124,250.14,46.4c-2.764-22.507-15.163-38.7-33.169-43.277a1.6,1.6,0,0,1-1.185-1.737A1.542,1.542,0,0,1,217.327,0h.2a61.015,61.015,0,0,1,45.054,102.152l-.158.158c-7.226,5.923-13.623,16.19-19.033,30.523A1.568,1.568,0,0,1,241.927,133.86Zm-8.253-3.159h7.147c5.528-14.255,12.083-24.6,19.506-30.76A57.862,57.862,0,0,0,228.146,4.146a43.888,43.888,0,0,1,14.926,13.662A62.659,62.659,0,0,1,253.26,46c1.5,12.083,2.132,35.617-10.069,57.414A80.616,80.616,0,0,0,233.674,130.7Zm27.759-29.615Z" transform="translate(-215.778 0)" fill="#267dce"/>
      </g>
      <g id="Group_162" data-name="Group 162">
        <path id="Path_119" data-name="Path 119" d="M112.139,133.86h-9.793a1.53,1.53,0,0,1-1.461-1.027C95.318,118.5,88.96,108.193,82.011,102.27a.545.545,0,0,0-.158-.118,61.024,61.024,0,0,1,1.856-84.225A60.384,60.384,0,0,1,126.63,0h0a1.611,1.611,0,0,1,1.579,1.382,1.563,1.563,0,0,1-1.185,1.737C109.019,7.7,96.621,23.889,93.857,46.4h0c-1.422,11.728-2.093,34.511,9.674,55.518a80.972,80.972,0,0,1,10.148,30.207,1.542,1.542,0,0,1-.395,1.224A1.622,1.622,0,0,1,112.139,133.86Zm-8.727-3.159h6.95a78.486,78.486,0,0,0-9.516-27.246c-12.2-21.8-11.53-45.331-10.069-57.414l1.579.2-1.579-.2c1.3-10.74,4.817-20.494,10.188-28.193A43.579,43.579,0,0,1,115.653,4.3,57.79,57.79,0,0,0,84.1,99.941C91.25,106.1,97.726,116.446,103.412,130.7Z" transform="translate(-65.9)" fill="#267dce"/>
      </g>
      <g id="Group_163" data-name="Group 163" transform="translate(24.06 0.039)">
        <path id="Path_120" data-name="Path 120" d="M163.542,133.92H149.011a1.611,1.611,0,0,1-1.579-1.382,78.039,78.039,0,0,0-9.753-29.023c-12.2-21.8-11.53-45.331-10.069-57.414,1.3-10.74,4.817-20.494,10.188-28.193A43.072,43.072,0,0,1,163.147.139.981.981,0,0,1,163.463.1h.079a1.584,1.584,0,0,1,1.579,1.579v130.7A1.576,1.576,0,0,1,163.542,133.92Zm-13.149-3.159h11.57V3.733c-16.94,5.252-28.549,21.046-31.194,42.725-1.422,11.728-2.093,34.511,9.674,55.518A82.031,82.031,0,0,1,150.393,130.761Z" transform="translate(-126.832 -0.1)" fill="#267dce"/>
      </g>
      <g id="Group_164" data-name="Group 164" transform="translate(59.191)">
        <path id="Path_121" data-name="Path 121" d="M231.911,133.86H217.379a1.584,1.584,0,0,1-1.579-1.579V1.579A1.584,1.584,0,0,1,217.379,0a1.343,1.343,0,0,1,.395.039,43.072,43.072,0,0,1,25.35,17.769A62.659,62.659,0,0,1,253.312,46h0c1.5,12.083,2.132,35.617-10.069,57.414a78.04,78.04,0,0,0-9.753,29.023A1.612,1.612,0,0,1,231.911,133.86ZM218.959,130.7h11.57a82.437,82.437,0,0,1,9.951-28.825c11.767-21.007,11.135-43.791,9.674-55.518h0C247.508,24.679,235.9,8.845,218.959,3.633Z" transform="translate(-215.8)" fill="#267dce"/>
      </g>
    </g>
    <g id="Group_166" data-name="Group 166" transform="translate(60.797 130.701)">
      <path id="Path_122" data-name="Path 122" d="M172.159,352.323h-6.713a1.982,1.982,0,0,1-.474-.079c-1.145-.355-4.462-2.883-10.74-19.112a1.6,1.6,0,0,1,.158-1.461,1.541,1.541,0,0,1,1.3-.671h16.466a1.584,1.584,0,0,1,1.579,1.579v18.164A1.584,1.584,0,0,1,172.159,352.323Zm-6.041-3Zm-.2-.158h4.659v-15H158.023C162.643,345.61,165.209,348.532,165.92,349.164Z" transform="translate(-154.122 -331)" fill="#267dce"/>
    </g>
    <g id="Group_167" data-name="Group 167" transform="translate(77.254 130.701)">
      <path id="Path_123" data-name="Path 123" d="M220.677,352.323h-23.3a1.584,1.584,0,0,1-1.579-1.579V332.579A1.584,1.584,0,0,1,197.379,331h32.458a1.592,1.592,0,0,1,1.3.671,1.744,1.744,0,0,1,.2,1.461c-4.383,11.57-7.976,18.361-10.109,19.112A3.1,3.1,0,0,1,220.677,352.323Zm-.79-2.961Zm0,0Zm-4.344-.2h4.58c.711-.75,3.04-3.83,7.384-15H215.543Zm-16.584,0h13.425v-15H198.959Z" transform="translate(-195.8 -331)" fill="#267dce"/>
    </g>
    <g id="Group_168" data-name="Group 168" transform="translate(65.408 158.934)">
      <path id="Path_124" data-name="Path 124" d="M187.32,441.987h0a21.52,21.52,0,0,1-21.52-21.52V402.5h43.04v17.966A21.52,21.52,0,0,1,187.32,441.987Z" transform="translate(-165.8 -402.5)" fill="#afd8f9"/>
    </g>
    <g id="Group_169" data-name="Group 169" transform="translate(65.369 158.894)">
      <path id="Path_125" data-name="Path 125" d="M187.931,441.926h0A22.228,22.228,0,0,1,165.7,419.7V402.4h34.353v27.364A12.108,12.108,0,0,1,187.931,441.926Z" transform="translate(-165.7 -402.4)" fill="#e9f6ff"/>
    </g>
    <g id="Group_170" data-name="Group 170" transform="translate(63.829 157.354)">
      <path id="Path_126" data-name="Path 126" d="M184.9,441.146a23.1,23.1,0,0,1-23.1-23.1V398.5H208v19.546A23.129,23.129,0,0,1,184.9,441.146Zm-19.941-39.487v16.387a19.941,19.941,0,1,0,39.882,0V401.659Z" transform="translate(-161.8 -398.5)" fill="#267dce"/>
    </g>
    <g id="Group_171" data-name="Group 171" transform="translate(60.275 151.431)">
      <path id="Path_127" data-name="Path 127" d="M202.356,391h-45.8a3.775,3.775,0,0,1-3.751-3.751h0a3.775,3.775,0,0,1,3.751-3.751h45.8a3.775,3.775,0,0,1,3.751,3.751h0A3.775,3.775,0,0,1,202.356,391Z" transform="translate(-152.8 -383.5)" fill="#afd8f9"/>
    </g>
    <g id="Group_172" data-name="Group 172" transform="translate(60.275 151.431)">
      <path id="Path_128" data-name="Path 128" d="M192.879,391H156.551a3.775,3.775,0,0,1-3.751-3.751h0a3.775,3.775,0,0,1,3.751-3.751h36.328a3.775,3.775,0,0,1,3.751,3.751h0A3.775,3.775,0,0,1,192.879,391Z" transform="translate(-152.8 -383.5)" fill="#e9f6ff"/>
    </g>
    <g id="Group_173" data-name="Group 173" transform="translate(58.696 149.852)">
      <path id="Path_129" data-name="Path 129" d="M199.935,390.161h-45.8a5.331,5.331,0,1,1,0-10.661h45.8a5.331,5.331,0,0,1,0,10.661Zm-45.8-7.5a2.172,2.172,0,1,0,0,4.344h45.8a2.172,2.172,0,0,0,0-4.344Z" transform="translate(-148.8 -379.5)" fill="#267dce"/>
    </g>
    <g id="Group_177" data-name="Group 177" transform="translate(54.55 142.744)">
      <g id="Group_174" data-name="Group 174" transform="translate(1.579 1.579)">
        <path id="Path_130" data-name="Path 130" d="M248.559,395.51a15.993,15.993,0,0,0-26.022-8.806,25.072,25.072,0,0,0-48.529-4.146c-.434-.039-.869-.079-1.3-.079a14.232,14.232,0,0,0-14.176,13.031h-4.186A12.066,12.066,0,0,0,142.3,407.553h0A12.066,12.066,0,0,0,154.343,419.6h93.978a12.066,12.066,0,0,0,12.043-12.043h0A12.043,12.043,0,0,0,248.559,395.51Z" transform="translate(-142.3 -365.5)" fill="#e9f6ff"/>
      </g>
      <g id="Group_175" data-name="Group 175">
        <path id="Path_131" data-name="Path 131" d="M245.9,418.756H151.923a13.623,13.623,0,1,1,0-27.246h2.8a15.881,15.881,0,0,1,15.795-13.031,26.654,26.654,0,0,1,50.661,3.08,17.568,17.568,0,0,1,26.219,10.03,13.625,13.625,0,0,1-1.5,27.167Zm-93.978-24.087a10.464,10.464,0,1,0,0,20.928H245.9a10.465,10.465,0,0,0,.2-20.928,1.522,1.522,0,0,1-1.5-1.264,14.436,14.436,0,0,0-23.455-7.937,1.6,1.6,0,0,1-2.606-.948,23.511,23.511,0,0,0-45.489-3.909,1.552,1.552,0,0,1-1.658,1.066c-.395-.039-.79-.039-1.185-.039a12.727,12.727,0,0,0-12.6,11.57,1.59,1.59,0,0,1-1.579,1.461Z" transform="translate(-138.3 -361.5)" fill="#267dce"/>
      </g>
      <g id="Group_176" data-name="Group 176" transform="translate(17.374 11.451)">
        <path id="Path_132" data-name="Path 132" d="M266.88,414.389a12.718,12.718,0,0,0-20.691-7.029,19.951,19.951,0,0,0-38.618-3.277,9.622,9.622,0,0,0-1.066-.039,11.311,11.311,0,0,0-11.254,10.385H191.9a9.606,9.606,0,0,0-9.6,9.6h0a9.606,9.606,0,0,0,9.6,9.6h74.788a9.606,9.606,0,0,0,9.6-9.6h0A9.574,9.574,0,0,0,266.88,414.389Z" transform="translate(-182.3 -390.5)" fill="#fff"/>
      </g>
    </g>
    <g id="Group_184" data-name="Group 184" transform="translate(136.919 51.017)">
      <g id="Group_178" data-name="Group 178" transform="translate(10.267 24.087)">
        <path id="Path_133" data-name="Path 133" d="M385.141,195.689,390,198.334a.671.671,0,0,1,0,1.185l-4.857,2.646a.923.923,0,0,0-.276.276l-2.646,4.857a.671.671,0,0,1-1.185,0l-2.646-4.857a.923.923,0,0,0-.276-.276l-4.857-2.646a.671.671,0,0,1,0-1.185l4.857-2.646a.923.923,0,0,0,.276-.276l2.646-4.857a.671.671,0,0,1,1.185,0l2.646,4.857A.472.472,0,0,0,385.141,195.689Z" transform="translate(-372.9 -190.2)" fill="#fff"/>
      </g>
      <g id="Group_179" data-name="Group 179" transform="translate(9.516 23.376)">
        <path id="Path_134" data-name="Path 134" d="M380.477,207.354a1.415,1.415,0,0,1-1.264-.75l-2.646-4.817-4.817-2.646a1.439,1.439,0,0,1,0-2.527l4.817-2.646,2.646-4.817a1.439,1.439,0,0,1,2.527,0l2.646,4.817,4.817,2.646a1.439,1.439,0,0,1,0,2.527l-4.817,2.646L381.74,206.6A1.5,1.5,0,0,1,380.477,207.354Zm-7.9-9.477,4.738,2.567a1.248,1.248,0,0,1,.553.553l2.567,4.738L383,201a1.247,1.247,0,0,1,.553-.553l4.738-2.567-4.738-2.567a1.247,1.247,0,0,1-.553-.553l-2.567-4.738-2.567,4.738a1.248,1.248,0,0,1-.553.553Z" transform="translate(-371 -188.4)" fill="#267dce"/>
      </g>
      <g id="Group_180" data-name="Group 180" transform="translate(24.482 5.133)">
        <path id="Path_135" data-name="Path 135" d="M421.141,147.689,426,150.334a.671.671,0,0,1,0,1.185l-4.857,2.646a.923.923,0,0,0-.276.276l-2.646,4.857a.671.671,0,0,1-1.185,0l-2.646-4.857a.923.923,0,0,0-.276-.276l-4.857-2.646a.671.671,0,0,1,0-1.185l4.857-2.646a.923.923,0,0,0,.276-.276l2.646-4.857a.671.671,0,0,1,1.185,0l2.646,4.857A.472.472,0,0,0,421.141,147.689Z" transform="translate(-408.9 -142.2)" fill="#e9f6ff"/>
      </g>
      <g id="Group_181" data-name="Group 181" transform="translate(23.731 4.423)">
        <path id="Path_136" data-name="Path 136" d="M416.477,159.354a1.415,1.415,0,0,1-1.264-.75l-2.646-4.817-4.817-2.646a1.439,1.439,0,0,1,0-2.527l4.817-2.646,2.646-4.817a1.439,1.439,0,0,1,2.527,0l2.646,4.817,4.817,2.646a1.439,1.439,0,0,1,0,2.527l-4.817,2.646L417.74,158.6A1.5,1.5,0,0,1,416.477,159.354Zm-7.9-9.477,4.738,2.567a1.248,1.248,0,0,1,.553.553l2.567,4.738L419,153a1.248,1.248,0,0,1,.553-.553l4.738-2.567-4.738-2.567a1.248,1.248,0,0,1-.553-.553l-2.567-4.738-2.567,4.738a1.248,1.248,0,0,1-.553.553Z" transform="translate(-407 -140.4)" fill="#267dce"/>
      </g>
      <g id="Group_182" data-name="Group 182" transform="translate(0.849 0.888)">
        <path id="Path_137" data-name="Path 137" d="M363.127,137.748l5.568,3.04a.783.783,0,0,1,0,1.382l-5.568,3.04a1.2,1.2,0,0,0-.316.316l-3.04,5.568a.783.783,0,0,1-1.382,0l-3.04-5.568a1.2,1.2,0,0,0-.316-.316l-5.568-3.04a.783.783,0,0,1,0-1.382l5.568-3.04a1.2,1.2,0,0,0,.316-.316l3.04-5.568a.783.783,0,0,1,1.382,0l3.04,5.568A.612.612,0,0,0,363.127,137.748Z" transform="translate(-349.05 -131.45)" fill="#afd8f9"/>
      </g>
      <g id="Group_183" data-name="Group 183">
        <path id="Path_138" data-name="Path 138" d="M357.8,151a1.677,1.677,0,0,1-1.461-.869L353.3,144.6l-5.528-3.04a1.663,1.663,0,0,1-.869-1.461,1.632,1.632,0,0,1,.869-1.461l5.528-3.04,3.04-5.528a1.663,1.663,0,0,1,1.461-.869,1.632,1.632,0,0,1,1.461.869l3.04,5.528,5.528,3.04a1.663,1.663,0,0,1,.869,1.461,1.632,1.632,0,0,1-.869,1.461L362.3,144.6l-3.04,5.528A1.762,1.762,0,0,1,357.8,151Zm-9.042-10.859,5.41,2.962a1.825,1.825,0,0,1,.671.671l2.962,5.41,2.961-5.449a1.824,1.824,0,0,1,.671-.671l5.41-2.962-5.41-2.961a1.825,1.825,0,0,1-.671-.671l-2.962-5.41-2.962,5.41a1.824,1.824,0,0,1-.671.671Z" transform="translate(-346.9 -129.2)" fill="#267dce"/>
      </g>
    </g>
    <g id="Group_191" data-name="Group 191" transform="translate(-0.1 132.359)">
      <g id="Group_185" data-name="Group 185" transform="translate(10.267 24.087)">
        <path id="Path_139" data-name="Path 139" d="M38.141,401.689,43,404.334a.671.671,0,0,1,0,1.185l-4.857,2.646a.923.923,0,0,0-.276.276L35.219,413.3a.671.671,0,0,1-1.185,0l-2.646-4.857a.923.923,0,0,0-.276-.276l-4.857-2.646a.671.671,0,0,1,0-1.185l4.857-2.646a.923.923,0,0,0,.276-.276l2.646-4.857a.671.671,0,0,1,1.185,0l2.646,4.857A.472.472,0,0,0,38.141,401.689Z" transform="translate(-25.9 -396.2)" fill="#fff"/>
      </g>
      <g id="Group_186" data-name="Group 186" transform="translate(9.516 23.376)">
        <path id="Path_140" data-name="Path 140" d="M33.477,413.354a1.415,1.415,0,0,1-1.264-.75l-2.646-4.817L24.75,405.14a1.439,1.439,0,0,1,0-2.527l4.817-2.646,2.646-4.817a1.439,1.439,0,0,1,2.527,0l2.646,4.817,4.817,2.646a1.439,1.439,0,0,1,0,2.527l-4.817,2.646L34.74,412.6A1.5,1.5,0,0,1,33.477,413.354Zm-7.9-9.477,4.738,2.567a1.247,1.247,0,0,1,.553.553l2.567,4.738L36,407a1.247,1.247,0,0,1,.553-.553l4.738-2.567-4.738-2.567a1.248,1.248,0,0,1-.553-.553l-2.567-4.738-2.567,4.738a1.248,1.248,0,0,1-.553.553Z" transform="translate(-24 -394.4)" fill="#267dce"/>
      </g>
      <g id="Group_187" data-name="Group 187" transform="translate(24.482 5.133)">
        <path id="Path_141" data-name="Path 141" d="M74.141,353.689,79,356.334a.671.671,0,0,1,0,1.185l-4.857,2.646a.923.923,0,0,0-.276.276L71.219,365.3a.671.671,0,0,1-1.185,0l-2.646-4.857a.923.923,0,0,0-.276-.276l-4.857-2.646a.671.671,0,0,1,0-1.185l4.857-2.646a.923.923,0,0,0,.276-.276l2.646-4.857a.671.671,0,0,1,1.185,0l2.646,4.857A.472.472,0,0,0,74.141,353.689Z" transform="translate(-61.9 -348.2)" fill="#e9f6ff"/>
      </g>
      <g id="Group_188" data-name="Group 188" transform="translate(23.731 4.423)">
        <path id="Path_142" data-name="Path 142" d="M69.477,365.354a1.415,1.415,0,0,1-1.264-.75l-2.646-4.817L60.75,357.14a1.439,1.439,0,0,1,0-2.527l4.817-2.646,2.646-4.817a1.439,1.439,0,0,1,2.527,0l2.646,4.817,4.817,2.646a1.439,1.439,0,0,1,0,2.527l-4.817,2.646L70.74,364.6A1.5,1.5,0,0,1,69.477,365.354Zm-7.9-9.477,4.738,2.567a1.247,1.247,0,0,1,.553.553l2.567,4.738L72,359a1.247,1.247,0,0,1,.553-.553l4.738-2.567-4.738-2.567a1.248,1.248,0,0,1-.553-.553l-2.567-4.738-2.567,4.738a1.248,1.248,0,0,1-.553.553Z" transform="translate(-60 -346.4)" fill="#267dce"/>
      </g>
      <g id="Group_189" data-name="Group 189" transform="translate(0.849 0.888)">
        <path id="Path_143" data-name="Path 143" d="M16.127,343.748l5.568,3.04a.783.783,0,0,1,0,1.382l-5.568,3.04a1.2,1.2,0,0,0-.316.316l-3.04,5.568a.783.783,0,0,1-1.382,0l-3.04-5.568a1.2,1.2,0,0,0-.316-.316l-5.568-3.04a.783.783,0,0,1,0-1.382l5.568-3.04a1.2,1.2,0,0,0,.316-.316l3.04-5.568a.783.783,0,0,1,1.382,0l3.04,5.568A.612.612,0,0,0,16.127,343.748Z" transform="translate(-2.05 -337.45)" fill="#afd8f9"/>
      </g>
      <g id="Group_190" data-name="Group 190">
        <path id="Path_144" data-name="Path 144" d="M10.8,357a1.677,1.677,0,0,1-1.461-.869L6.3,350.6l-5.528-3.04a1.663,1.663,0,0,1,0-2.922L6.3,341.6l3.04-5.528A1.663,1.663,0,0,1,10.8,335.2a1.632,1.632,0,0,1,1.461.869L15.3,341.6l5.528,3.04a1.663,1.663,0,0,1,0,2.922L15.3,350.6l-3.04,5.528A1.762,1.762,0,0,1,10.8,357ZM1.756,346.138l5.41,2.961a1.825,1.825,0,0,1,.671.671l2.962,5.41,2.962-5.449a1.825,1.825,0,0,1,.671-.671l5.41-2.961-5.41-2.961a1.825,1.825,0,0,1-.671-.671L10.8,337.1l-2.962,5.41a1.825,1.825,0,0,1-.671.671Z" transform="translate(0.1 -335.2)" fill="#267dce"/>
      </g>
    </g>
  </g>
</svg>
