<svg xmlns="http://www.w3.org/2000/svg" width="201.994" height="200" viewBox="0 0 201.994 200">
  <g id="real-itme-availability" transform="translate(0 0.2)">
    <g id="Group_269" data-name="Group 269" transform="translate(14.987 28.97)">
      <g id="Group_248" data-name="Group 248" transform="translate(6.561 18.356)">
        <g id="Group_246" data-name="Group 246" transform="translate(1.596 1.596)">
          <path id="Path_181" data-name="Path 181" d="M181.3,183.953H58V131a8.106,8.106,0,0,1,8.1-8.1H173.164a8.106,8.106,0,0,1,8.1,8.1v52.953Z" transform="translate(-58 -122.9)" fill="#fff"/>
        </g>
        <g id="Group_247" data-name="Group 247">
          <path id="Path_182" data-name="Path 182" d="M178.9,183.146H55.6a1.6,1.6,0,0,1-1.6-1.6V128.6a9.707,9.707,0,0,1,9.7-9.7H170.76a9.707,9.707,0,0,1,9.7,9.7V181.55A1.542,1.542,0,0,1,178.9,183.146ZM57.192,179.953H177.3V128.6a6.506,6.506,0,0,0-6.5-6.5H63.7a6.506,6.506,0,0,0-6.5,6.5v51.357Z" transform="translate(-54 -118.9)" fill="#267dce"/>
        </g>
      </g>
      <g id="Group_249" data-name="Group 249" transform="translate(8.157 81.006)">
        <path id="Path_183" data-name="Path 183" d="M181.3,275.9H58v52.953a8.106,8.106,0,0,0,8.1,8.1H173.164a8.106,8.106,0,0,0,8.1-8.1V275.9Z" transform="translate(-58 -275.9)" fill="#e9f6ff"/>
      </g>
      <g id="Group_250" data-name="Group 250" transform="translate(8.157 81.006)" opacity="0.2">
        <rect id="Rectangle_31" data-name="Rectangle 31" width="123.304" height="53.472" fill="#454b4c"/>
      </g>
      <g id="Group_251" data-name="Group 251" transform="translate(6.561 79.409)">
        <path id="Path_184" data-name="Path 184" d="M170.8,336.146H63.7a9.716,9.716,0,0,1-9.7-9.737V273.5a1.6,1.6,0,0,1,1.6-1.6H178.9a1.6,1.6,0,0,1,1.6,1.6v52.953A9.707,9.707,0,0,1,170.8,336.146ZM57.192,275.092v51.357a6.506,6.506,0,0,0,6.5,6.5H170.76a6.506,6.506,0,0,0,6.5-6.5V275.092Z" transform="translate(-54 -271.9)" fill="#267dce"/>
      </g>
      <g id="Group_252" data-name="Group 252" transform="translate(1.584 81.006)">
        <path id="Path_185" data-name="Path 185" d="M171.405,275.9H48.1l-6.464,39.066a7.918,7.918,0,0,0,7.821,9.218h120.63a7.96,7.96,0,0,0,7.821-9.218Z" transform="translate(-41.528 -275.9)" fill="#f1f2f2"/>
      </g>
      <g id="Group_253" data-name="Group 253" transform="translate(1.584 81.006)">
        <path id="Path_186" data-name="Path 186" d="M171.405,275.9H48.1l-6.464,39.066a7.918,7.918,0,0,0,7.821,9.218h120.63a7.96,7.96,0,0,0,7.821-9.218Z" transform="translate(-41.528 -275.9)" fill="#e9f6ff"/>
      </g>
      <g id="Group_254" data-name="Group 254" transform="translate(0 79.449)">
        <path id="Path_187" data-name="Path 187" d="M167.662,323.437H47.072a9.622,9.622,0,0,1-7.263-3.352,9.443,9.443,0,0,1-2.115-7.7l6.464-39.066A1.583,1.583,0,0,1,45.715,272h123.3a1.553,1.553,0,0,1,1.556,1.317l6.464,39.066a9.479,9.479,0,0,1-9.377,11.053ZM47.072,275.152,40.847,312.9a6.217,6.217,0,0,0,1.4,5.108,6.369,6.369,0,0,0,4.828,2.235H167.7a6.295,6.295,0,0,0,6.225-7.342L167.7,275.152Z" transform="translate(-37.558 -272)" fill="#454b4c"/>
      </g>
      <g id="Group_255" data-name="Group 255" transform="translate(0 79.449)">
        <path id="Path_188" data-name="Path 188" d="M167.662,323.437H47.072a9.622,9.622,0,0,1-7.263-3.352,9.443,9.443,0,0,1-2.115-7.7l6.464-39.066A1.583,1.583,0,0,1,45.715,272h123.3a1.553,1.553,0,0,1,1.556,1.317l6.464,39.066a9.479,9.479,0,0,1-9.377,11.053ZM47.072,275.152,40.847,312.9a6.217,6.217,0,0,0,1.4,5.108,6.369,6.369,0,0,0,4.828,2.235H167.7a6.295,6.295,0,0,0,6.225-7.342L167.7,275.152Z" transform="translate(-37.558 -272)" fill="#267dce"/>
      </g>
      <g id="Group_256" data-name="Group 256" transform="translate(54.845 49.481)">
        <path id="Path_189" data-name="Path 189" d="M175,207.275l9.976-10.375h11.971s-1.6,37.51,3.192,54.27H181.784s3.99-13.168,3.192-43.895Z" transform="translate(-175 -196.9)" fill="#267dce"/>
      </g>
      <path id="Path_190" data-name="Path 190" d="M349.406,200.314h0a34.845,34.845,0,0,1-34.6-38.508l3.911-38.907h61.333l3.911,38.907A34.77,34.77,0,0,1,349.406,200.314Z" transform="translate(-204.057 -102.948)" opacity="0.2"/>
      <g id="Group_257" data-name="Group 257" transform="translate(115.782 19.952)">
        <path id="Path_191" data-name="Path 191" d="M327.9,161.807l3.911-38.907h-.359L327.9,161.807c-2,20.591,12.729,38.508,31.6,38.508h0c.479,0,.958,0,1.437-.04A34.816,34.816,0,0,1,327.9,161.807Z" transform="translate(-327.708 -122.9)" fill="#f1f2f2"/>
      </g>
      <g id="Group_258" data-name="Group 258" transform="translate(115.782 19.952)">
        <path id="Path_192" data-name="Path 192" d="M391.113,161.807,387.521,122.9H331.815L327.9,161.807a34.816,34.816,0,0,0,33.041,38.468C379.1,199.4,393.028,181.878,391.113,161.807Z" transform="translate(-327.708 -122.9)" fill="#f1f2f2"/>
      </g>
      <g id="Group_259" data-name="Group 259" transform="translate(115.764 19.952)">
        <path id="Path_193" data-name="Path 193" d="M327.877,161.807l4.31-38.907h-.4l-3.911,38.907a34.792,34.792,0,0,0,34.557,38.508h0c.519,0,1.037,0,1.556-.04C342.242,199.4,325.562,181.878,327.877,161.807Z" transform="translate(-327.662 -122.9)" fill="#f1f2f2"/>
      </g>
      <g id="Group_260" data-name="Group 260" transform="translate(115.764 19.952)">
        <path id="Path_194" data-name="Path 194" d="M397.031,161.807,393.12,122.9H332.186l-4.31,38.907c-2.314,20.072,14.366,37.59,36.153,38.468A34.811,34.811,0,0,0,397.031,161.807Z" transform="translate(-327.662 -122.9)" fill="#fff"/>
      </g>
      <path id="Path_195" data-name="Path 195" d="M362.406,246.735h0A34.845,34.845,0,0,0,397,208.228l-.6-5.786c-7.821-2.913-14.765-2.913-18.4-.8-6.784,3.99-16.76,12.769-37.909,6.385a30.37,30.37,0,0,0-12.131-1.357l-.16,1.6A34.832,34.832,0,0,0,362.406,246.735Z" transform="translate(-211.87 -149.369)" fill="#e9f6ff"/>
      <path id="Path_196" data-name="Path 196" d="M439.261,161.807,434.792,122.9h-6.425l4.11,38.907c2.195,20.072-13.687,37.59-34.477,38.468.6.04,1.2.04,1.8.04h0C423.379,200.314,441.735,182.4,439.261,161.807Z" transform="translate(-254.168 -102.948)" fill="#afd8f9"/>
      <path id="Path_197" data-name="Path 197" d="M360.074,199.507A36.461,36.461,0,0,1,323.8,159.243l3.911-38.907a1.6,1.6,0,0,1,1.6-1.437h61.453a1.6,1.6,0,0,1,1.6,1.437l3.911,38.907a36.516,36.516,0,0,1-36.193,40.263Zm-29.29-77.414-3.791,37.47a33.227,33.227,0,1,0,66.081,0l-3.791-37.51h-58.5Z" transform="translate(-209.459 -100.544)" fill="#267dce"/>
      <path id="Path_198" data-name="Path 198" d="M411.1,360.785a1.6,1.6,0,0,1-1.6-1.6V314.5a1.6,1.6,0,1,1,3.192,0v44.693A1.6,1.6,0,0,1,411.1,360.785Z" transform="translate(-261.079 -217.13)" fill="#267dce"/>
      <path id="Path_199" data-name="Path 199" d="M397.467,428.092H343.6a1.6,1.6,0,0,1,0-3.192h53.871a1.6,1.6,0,0,1,0,3.192Z" transform="translate(-220.515 -284.437)" fill="#267dce"/>
      <g id="Group_264" data-name="Group 264" transform="translate(24.518)">
        <g id="Group_261" data-name="Group 261" transform="translate(1.596 1.596)">
          <path id="Path_200" data-name="Path 200" d="M109.584,113.612h0A6.591,6.591,0,0,1,103,107.028V83.484a6.591,6.591,0,0,1,6.584-6.584h0a6.591,6.591,0,0,1,6.584,6.584v23.543A6.591,6.591,0,0,1,109.584,113.612Z" transform="translate(-103 -76.9)" fill="#e9f6ff"/>
        </g>
        <g id="Group_262" data-name="Group 262" transform="translate(1.596 1.596)">
          <path id="Path_201" data-name="Path 201" d="M106.791,109.222h0A3.815,3.815,0,0,1,103,105.432V80.491a3.576,3.576,0,0,1,3.591-3.591h3.99v28.532A3.815,3.815,0,0,1,106.791,109.222Z" transform="translate(-103 -76.9)" fill="#afd8f9"/>
        </g>
        <g id="Group_263" data-name="Group 263">
          <path id="Path_202" data-name="Path 202" d="M107.18,112.8a8.192,8.192,0,0,1-8.18-8.18V81.08a8.18,8.18,0,1,1,16.361,0v23.543A8.192,8.192,0,0,1,107.18,112.8Zm0-36.712a4.99,4.99,0,0,0-4.988,4.988v23.543a4.988,4.988,0,1,0,9.976,0V81.08A4.99,4.99,0,0,0,107.18,76.092Z" transform="translate(-99 -72.9)" fill="#267dce"/>
        </g>
      </g>
      <g id="Group_268" data-name="Group 268" transform="translate(98.74)">
        <g id="Group_265" data-name="Group 265" transform="translate(1.596 1.596)">
          <path id="Path_203" data-name="Path 203" d="M295.584,113.612h0A6.591,6.591,0,0,1,289,107.028V83.484a6.591,6.591,0,0,1,6.584-6.584h0a6.591,6.591,0,0,1,6.584,6.584v23.543A6.591,6.591,0,0,1,295.584,113.612Z" transform="translate(-289 -76.9)" fill="#e9f6ff"/>
        </g>
        <g id="Group_266" data-name="Group 266" transform="translate(1.596 1.596)">
          <path id="Path_204" data-name="Path 204" d="M292.791,109.222h0A3.815,3.815,0,0,1,289,105.432V80.491a3.576,3.576,0,0,1,3.591-3.591h3.99v28.532A3.815,3.815,0,0,1,292.791,109.222Z" transform="translate(-289 -76.9)" fill="#afd8f9"/>
        </g>
        <g id="Group_267" data-name="Group 267">
          <path id="Path_205" data-name="Path 205" d="M293.18,112.8a8.192,8.192,0,0,1-8.18-8.18V81.08a8.18,8.18,0,1,1,16.361,0v23.543A8.192,8.192,0,0,1,293.18,112.8Zm0-36.712a4.99,4.99,0,0,0-4.988,4.988v23.543a4.988,4.988,0,0,0,9.976,0V81.08A4.99,4.99,0,0,0,293.18,76.092Z" transform="translate(-285 -72.9)" fill="#267dce"/>
        </g>
      </g>
    </g>
    <g id="Group_270" data-name="Group 270" transform="translate(145.611 -0.2)">
      <path id="Path_206" data-name="Path 206" d="M403.27,66.447l4.908,2.674a.678.678,0,0,1,0,1.2l-4.908,2.674a.932.932,0,0,0-.279.279l-2.674,4.908a.678.678,0,0,1-1.2,0l-2.674-4.908a.932.932,0,0,0-.279-.279l-4.908-2.674a.678.678,0,0,1,0-1.2l4.908-2.674a.933.933,0,0,0,.279-.279l2.674-4.908a.678.678,0,0,1,1.2,0l2.674,4.908A.932.932,0,0,0,403.27,66.447Z" transform="translate(-380.525 -36.519)" fill="#fff"/>
      <path id="Path_207" data-name="Path 207" d="M398.577,78.154A1.43,1.43,0,0,1,397.3,77.4l-2.674-4.868-4.868-2.674a1.454,1.454,0,0,1,0-2.554l4.868-2.674,2.674-4.868a1.454,1.454,0,0,1,2.554,0l2.674,4.868L407.4,67.3a1.454,1.454,0,0,1,0,2.554l-4.868,2.674L399.854,77.4A1.43,1.43,0,0,1,398.577,78.154ZM390.6,68.577l4.789,2.594a1.261,1.261,0,0,1,.559.559l2.594,4.788,2.594-4.788a1.261,1.261,0,0,1,.559-.559l4.789-2.594-4.789-2.594a1.261,1.261,0,0,1-.559-.559L398.577,60.6l-2.594,4.789a1.261,1.261,0,0,1-.559.559Z" transform="translate(-379.383 -35.377)" fill="#267dce"/>
      <path id="Path_208" data-name="Path 208" d="M439.27,18.447l4.908,2.674a.678.678,0,0,1,0,1.2l-4.908,2.674a.932.932,0,0,0-.279.279l-2.674,4.908a.678.678,0,0,1-1.2,0l-2.674-4.908a.932.932,0,0,0-.279-.279l-4.908-2.674a.678.678,0,0,1,0-1.2l4.908-2.674a.933.933,0,0,0,.279-.279l2.674-4.908a.678.678,0,0,1,1.2,0l2.674,4.908A.932.932,0,0,0,439.27,18.447Z" transform="translate(-402.159 -7.673)" fill="#e9f6ff"/>
      <path id="Path_209" data-name="Path 209" d="M434.577,30.154A1.43,1.43,0,0,1,433.3,29.4l-2.674-4.868-4.868-2.674a1.454,1.454,0,0,1,0-2.554l4.868-2.674,2.674-4.868a1.454,1.454,0,0,1,2.554,0l2.674,4.868L443.4,19.3a1.454,1.454,0,0,1,0,2.554l-4.868,2.674L435.854,29.4A1.43,1.43,0,0,1,434.577,30.154ZM426.6,20.577l4.789,2.594a1.261,1.261,0,0,1,.559.559l2.594,4.789,2.594-4.789a1.261,1.261,0,0,1,.559-.559l4.789-2.594-4.789-2.594a1.261,1.261,0,0,1-.559-.559L434.577,12.6l-2.594,4.789a1.261,1.261,0,0,1-.559.559Z" transform="translate(-401.018 -6.531)" fill="#267dce"/>
      <path id="Path_210" data-name="Path 210" d="M381.276,8.515l5.626,3.073a.791.791,0,0,1,0,1.4l-5.626,3.073a1.214,1.214,0,0,0-.319.319L377.884,22a.791.791,0,0,1-1.4,0l-3.073-5.626a1.215,1.215,0,0,0-.319-.319l-5.627-3.073a.791.791,0,0,1,0-1.4L373.1,8.515a1.215,1.215,0,0,0,.319-.319l3.073-5.626a.791.791,0,0,1,1.4,0L380.957,8.2A1.214,1.214,0,0,0,381.276,8.515Z" transform="translate(-366.192 -1.212)" fill="#afd8f9"/>
      <path id="Path_211" data-name="Path 211" d="M375.914,21.827a1.7,1.7,0,0,1-1.476-.878l-3.073-5.587-5.587-3.073a1.68,1.68,0,0,1-.878-1.476,1.649,1.649,0,0,1,.878-1.476l5.587-3.073L374.437.678A1.68,1.68,0,0,1,375.914-.2a1.649,1.649,0,0,1,1.476.878l3.073,5.587,5.587,3.073a1.68,1.68,0,0,1,.878,1.476,1.649,1.649,0,0,1-.878,1.476l-5.587,3.073-3.073,5.587A1.7,1.7,0,0,1,375.914,21.827Zm-9.138-10.974,5.467,2.993a1.844,1.844,0,0,1,.678.678l2.993,5.467,2.993-5.467a1.844,1.844,0,0,1,.678-.678l5.467-2.993-5.467-2.993a1.844,1.844,0,0,1-.678-.678l-2.993-5.467-2.993,5.467a1.844,1.844,0,0,1-.678.678Z" transform="translate(-364.9 0.2)" fill="#267dce"/>
    </g>
    <g id="Group_271" data-name="Group 271" transform="translate(0 157.063)">
      <path id="Path_212" data-name="Path 212" d="M38.27,460.447l4.908,2.674a.678.678,0,0,1,0,1.2l-4.908,2.674a.932.932,0,0,0-.279.279l-2.674,4.908a.678.678,0,0,1-1.2,0l-2.674-4.908a.932.932,0,0,0-.279-.279l-4.908-2.674a.678.678,0,0,1,0-1.2l4.908-2.674a.933.933,0,0,0,.279-.279l2.674-4.908a.678.678,0,0,1,1.2,0l2.674,4.908A.932.932,0,0,0,38.27,460.447Z" transform="translate(-15.565 -430.558)" fill="#fff"/>
      <path id="Path_213" data-name="Path 213" d="M33.577,472.154A1.43,1.43,0,0,1,32.3,471.4l-2.674-4.868-4.868-2.674a1.454,1.454,0,0,1,0-2.554l4.868-2.674,2.674-4.868a1.454,1.454,0,0,1,2.554,0l2.674,4.868L42.4,461.3a1.454,1.454,0,0,1,0,2.554l-4.868,2.674L34.854,471.4A1.43,1.43,0,0,1,33.577,472.154ZM25.6,462.577l4.789,2.594a1.261,1.261,0,0,1,.559.559l2.594,4.788,2.594-4.788a1.261,1.261,0,0,1,.559-.559l4.789-2.594-4.789-2.594a1.261,1.261,0,0,1-.559-.559L33.577,454.6l-2.594,4.789a1.261,1.261,0,0,1-.559.559Z" transform="translate(-14.423 -429.417)" fill="#267dce"/>
      <path id="Path_214" data-name="Path 214" d="M74.27,412.447l4.908,2.674a.678.678,0,0,1,0,1.2l-4.908,2.674a.932.932,0,0,0-.279.279l-2.674,4.908a.678.678,0,0,1-1.2,0l-2.674-4.908a.932.932,0,0,0-.279-.279l-4.908-2.674a.678.678,0,0,1,0-1.2l4.908-2.674a.932.932,0,0,0,.279-.279l2.674-4.908a.678.678,0,0,1,1.2,0l2.674,4.908A.932.932,0,0,0,74.27,412.447Z" transform="translate(-37.199 -401.712)" fill="#e9f6ff"/>
      <path id="Path_215" data-name="Path 215" d="M69.577,424.154A1.43,1.43,0,0,1,68.3,423.4l-2.674-4.868-4.868-2.674a1.454,1.454,0,0,1,0-2.554l4.868-2.674,2.674-4.868a1.454,1.454,0,0,1,2.554,0l2.674,4.868L78.4,413.3a1.454,1.454,0,0,1,0,2.554l-4.868,2.674L70.854,423.4A1.43,1.43,0,0,1,69.577,424.154ZM61.6,414.577l4.789,2.594a1.261,1.261,0,0,1,.559.559l2.594,4.789,2.594-4.789a1.261,1.261,0,0,1,.559-.559l4.789-2.594-4.789-2.594a1.261,1.261,0,0,1-.559-.559L69.577,406.6l-2.594,4.789a1.261,1.261,0,0,1-.559.559Z" transform="translate(-36.057 -400.571)" fill="#267dce"/>
      <path id="Path_216" data-name="Path 216" d="M16.276,402.515l5.626,3.073a.791.791,0,0,1,0,1.4l-5.626,3.073a1.215,1.215,0,0,0-.319.319L12.884,416a.791.791,0,0,1-1.4,0l-3.073-5.627a1.215,1.215,0,0,0-.319-.319l-5.626-3.073a.791.791,0,0,1,0-1.4L8.1,402.515a1.214,1.214,0,0,0,.319-.319l3.073-5.626a.791.791,0,0,1,1.4,0l3.073,5.626A1.214,1.214,0,0,0,16.276,402.515Z" transform="translate(-1.232 -395.252)" fill="#afd8f9"/>
      <path id="Path_217" data-name="Path 217" d="M10.974,415.887a1.7,1.7,0,0,1-1.476-.878l-3.073-5.587L.838,406.35A1.628,1.628,0,0,1,0,404.914a1.7,1.7,0,0,1,.878-1.476l5.587-3.073,3.073-5.587a1.68,1.68,0,0,1,1.476-.878,1.649,1.649,0,0,1,1.476.878l3.073,5.587,5.587,3.073a1.68,1.68,0,0,1,.878,1.476,1.649,1.649,0,0,1-.878,1.476l-5.587,3.073-3.073,5.587A1.862,1.862,0,0,1,10.974,415.887ZM1.836,404.914,7.3,407.906a1.844,1.844,0,0,1,.678.678l2.993,5.467,2.993-5.467a1.844,1.844,0,0,1,.678-.678l5.467-2.993-5.467-2.993a1.844,1.844,0,0,1-.678-.678l-2.993-5.467-2.993,5.467a1.844,1.844,0,0,1-.678.678Z" transform="translate(0 -393.9)" fill="#267dce"/>
    </g>
  </g>
</svg>
