<svg xmlns="http://www.w3.org/2000/svg" width="200.627" height="200" viewBox="0 0 200.627 200">
  <g id="sell-easily" transform="translate(0 0.015)">
    <g id="Group_199" data-name="Group 199" transform="translate(131.738 14.056)">
      <g id="Group_193" data-name="Group 193" transform="translate(10.982 25.807)">
        <path id="Path_145" data-name="Path 145" d="M350.994,100.271l5.2,2.83a.718.718,0,0,1,0,1.267l-5.2,2.83a.987.987,0,0,0-.3.3l-2.83,5.2a.718.718,0,0,1-1.267,0l-2.83-5.2a.987.987,0,0,0-.3-.3l-5.2-2.83a.718.718,0,0,1,0-1.267l5.2-2.83a.987.987,0,0,0,.3-.3l2.83-5.2a.718.718,0,0,1,1.267,0l2.83,5.2A.987.987,0,0,0,350.994,100.271Z" transform="translate(-337.9 -94.4)" fill="#fff"/>
      </g>
      <g id="Group_194" data-name="Group 194" transform="translate(10.179 25.004)">
        <path id="Path_146" data-name="Path 146" d="M346.137,112.774a1.514,1.514,0,0,1-1.352-.8l-2.83-5.153-5.153-2.83a1.539,1.539,0,0,1,0-2.7l5.153-2.83,2.83-5.153a1.539,1.539,0,0,1,2.7,0l2.83,5.153,5.153,2.83a1.539,1.539,0,0,1,0,2.7l-5.153,2.83-2.83,5.153A1.514,1.514,0,0,1,346.137,112.774Zm-8.447-10.137,5.068,2.745a1.334,1.334,0,0,1,.591.591l2.745,5.068,2.745-5.068a1.334,1.334,0,0,1,.591-.591l5.068-2.745-5.068-2.745a1.334,1.334,0,0,1-.591-.591l-2.745-5.068L343.349,99.3a1.334,1.334,0,0,1-.591.591Z" transform="translate(-336 -92.5)" fill="#267dce"/>
      </g>
      <g id="Group_195" data-name="Group 195" transform="translate(26.187 5.533)">
        <path id="Path_147" data-name="Path 147" d="M386.994,52.271l5.2,2.83a.718.718,0,0,1,0,1.267l-5.2,2.83a.987.987,0,0,0-.3.3l-2.83,5.2a.718.718,0,0,1-1.267,0l-2.83-5.2a.987.987,0,0,0-.3-.3l-5.2-2.83a.718.718,0,0,1,0-1.267l5.2-2.83a.987.987,0,0,0,.3-.3l2.83-5.2a.718.718,0,0,1,1.267,0l2.83,5.2A.987.987,0,0,0,386.994,52.271Z" transform="translate(-373.9 -46.4)" fill="#e9f6ff"/>
      </g>
      <g id="Group_196" data-name="Group 196" transform="translate(25.385 4.731)">
        <path id="Path_148" data-name="Path 148" d="M382.137,64.774a1.514,1.514,0,0,1-1.352-.8l-2.83-5.153-5.153-2.83a1.539,1.539,0,0,1,0-2.7l5.153-2.83,2.83-5.153a1.539,1.539,0,0,1,2.7,0l2.83,5.153,5.153,2.83a1.539,1.539,0,0,1,0,2.7l-5.153,2.83-2.83,5.153A1.514,1.514,0,0,1,382.137,64.774Zm-8.447-10.137,5.068,2.745a1.334,1.334,0,0,1,.591.591l2.745,5.068,2.745-5.068a1.334,1.334,0,0,1,.591-.591l5.068-2.745-4.984-2.745a1.334,1.334,0,0,1-.591-.591l-2.745-5.068L379.434,51.3a1.334,1.334,0,0,1-.591.591Z" transform="translate(-372 -44.5)" fill="#267dce"/>
      </g>
      <g id="Group_197" data-name="Group 197" transform="translate(0.908 0.993)">
        <path id="Path_149" data-name="Path 149" d="M329.108,42.387l5.955,3.252a.838.838,0,0,1,0,1.478l-5.955,3.252a1.285,1.285,0,0,0-.338.338l-3.252,5.955a.838.838,0,0,1-1.478,0l-3.252-5.955a1.286,1.286,0,0,0-.338-.338l-5.955-3.252a.838.838,0,0,1,0-1.478l5.955-3.252a1.285,1.285,0,0,0,.338-.338l3.252-5.955a.838.838,0,0,1,1.478,0l3.252,5.955A1.285,1.285,0,0,0,329.108,42.387Z" transform="translate(-314.05 -35.65)" fill="#afd8f9"/>
      </g>
      <g id="Group_198" data-name="Group 198">
        <path id="Path_150" data-name="Path 150" d="M323.557,56.615a1.794,1.794,0,0,1-1.563-.929l-3.252-5.913-5.913-3.252a1.779,1.779,0,0,1,0-3.126l5.913-3.252,3.252-5.913a1.778,1.778,0,0,1,1.563-.929,1.746,1.746,0,0,1,1.563.929l3.252,5.913,5.913,3.252a1.779,1.779,0,0,1,0,3.126l-5.913,3.252-3.252,5.913A1.794,1.794,0,0,1,323.557,56.615ZM313.885,45l5.786,3.168a1.952,1.952,0,0,1,.718.718l3.168,5.787,3.168-5.787a1.952,1.952,0,0,1,.718-.718L333.23,45l-5.787-3.168a1.952,1.952,0,0,1-.718-.718l-3.168-5.787-3.168,5.829a1.952,1.952,0,0,1-.718.718Z" transform="translate(-311.9 -33.3)" fill="#267dce"/>
      </g>
    </g>
    <g id="Group_236" data-name="Group 236" transform="translate(16.81 -0.015)">
      <g id="Group_200" data-name="Group 200" transform="translate(25.596 66.488)">
        <path id="Path_151" data-name="Path 151" d="M237.671,178.223v-5.575A15.268,15.268,0,0,0,222.424,157.4H134.317a15.268,15.268,0,0,0-15.248,15.248v5.787A29.28,29.28,0,0,0,100.4,205.719v8.828a29.237,29.237,0,0,0,18.669,27.285v3.379a15.268,15.268,0,0,0,15.248,15.248h88.107a15.268,15.268,0,0,0,15.248-15.248v-3.083a29.3,29.3,0,0,0,19.26-27.539v-8.828A29.3,29.3,0,0,0,237.671,178.223Z" transform="translate(-100.4 -157.4)" fill="#afd8f9"/>
      </g>
      <g id="Group_201" data-name="Group 201" transform="translate(25.596 67.586)">
        <path id="Path_152" data-name="Path 152" d="M232.434,182.681V174.53A14.629,14.629,0,0,0,217.693,160H133.176a14.629,14.629,0,0,0-14.741,14.53v5.533A27.89,27.89,0,0,0,100.4,206.039v8.405a27.89,27.89,0,0,0,18.035,25.976v3.21a14.629,14.629,0,0,0,14.741,14.53h84.475a14.629,14.629,0,0,0,14.741-14.53v-3a27.91,27.91,0,0,0,18.627-26.187v-8.405C251.018,194,243.289,186.567,232.434,182.681Z" transform="translate(-100.4 -160)" fill="#fff"/>
      </g>
      <g id="Group_202" data-name="Group 202" transform="translate(49.333 66.784)">
        <path id="Path_153" data-name="Path 153" d="M264.474,162.408s-5.955-4.308-9.588-4.308H166.779c-3.928,0-10.179,4.984-10.179,4.984Z" transform="translate(-156.6 -158.1)" fill="#e9f6ff"/>
      </g>
      <g id="Group_203" data-name="Group 203" transform="translate(23.906 64.798)">
        <path id="Path_154" data-name="Path 154" d="M220.113,259.922H132.006a16.962,16.962,0,0,1-16.937-16.937V240.7A30.808,30.808,0,0,1,96.4,212.279v-8.828a30.7,30.7,0,0,1,18.669-28.426v-4.688A16.962,16.962,0,0,1,132.006,153.4h88.107a16.962,16.962,0,0,1,16.937,16.937v4.435a31.064,31.064,0,0,1,19.26,28.679v8.828a31.063,31.063,0,0,1-19.26,28.679v2.027A16.962,16.962,0,0,1,220.113,259.922ZM132.006,156.779a13.574,13.574,0,0,0-13.558,13.558v6.969l-1.056.422a27.455,27.455,0,0,0-17.571,25.723v8.828A27.414,27.414,0,0,0,117.392,238l1.056.422v4.562a13.574,13.574,0,0,0,13.558,13.558h88.107a13.574,13.574,0,0,0,13.558-13.558v-4.35l1.1-.422a27.74,27.74,0,0,0,18.162-25.934v-8.828a27.656,27.656,0,0,0-18.162-25.934l-1.1-.422v-6.758a13.574,13.574,0,0,0-13.558-13.558Z" transform="translate(-96.4 -153.4)" fill="#267dce"/>
      </g>
      <g id="Group_204" data-name="Group 204" transform="translate(111.337 103.657)">
        <path id="Path_155" data-name="Path 155" d="M310.538,245.4a7.034,7.034,0,1,1,0,14.065,7.033,7.033,0,1,1,0-14.065Zm-2.914,28.3,19.64-27.834h4.984L312.608,273.7Zm2.914-18.246a2.8,2.8,0,0,0,2.83-3,2.833,2.833,0,1,0-5.66,0A2.822,2.822,0,0,0,310.538,255.452Zm18.753,4.731a7.034,7.034,0,1,1,0,14.065,7.033,7.033,0,1,1,0-14.065Zm0,10.01a2.8,2.8,0,0,0,2.83-3,2.833,2.833,0,1,0-5.66,0A2.8,2.8,0,0,0,329.291,270.193Z" transform="translate(-303.4 -245.4)" fill="#267dce"/>
      </g>
      <g id="Group_205" data-name="Group 205" transform="translate(2.745 80.764)" opacity="0.2">
        <path id="Path_156" data-name="Path 156" d="M142.812,234.071H129.8a4.823,4.823,0,0,0,.211-1.394v-7.856a4.554,4.554,0,0,0-1.1-2.957h6a4.525,4.525,0,0,0,4.519-4.519v-7.856a4.554,4.554,0,0,0-1.1-2.957,4.554,4.554,0,0,0,1.1-2.957v-7.856a4.525,4.525,0,0,0-4.519-4.519H60.238a4.525,4.525,0,0,0-4.519,4.519v7.856a4.554,4.554,0,0,0,1.1,2.957,4.554,4.554,0,0,0-1.1,2.957v7.856a4.554,4.554,0,0,0,1.1,2.957h-6a4.525,4.525,0,0,0-4.519,4.519v7.856a4.525,4.525,0,0,0,4.519,4.519H63.828a4.823,4.823,0,0,0-.211,1.394v7.856a4.554,4.554,0,0,0,1.1,2.957H60.238a4.525,4.525,0,0,0-4.519,4.519v7.856a4.525,4.525,0,0,0,4.519,4.519h.422a4.823,4.823,0,0,0-.211,1.394v7.856a4.525,4.525,0,0,0,4.519,4.519h74.718a4.525,4.525,0,0,0,4.519-4.519v-7.856a4.524,4.524,0,0,0-4.519-4.519h-.422a4.823,4.823,0,0,0,.211-1.394v-7.856a4.554,4.554,0,0,0-1.1-2.957h4.435a4.525,4.525,0,0,0,4.519-4.519V238.59A4.524,4.524,0,0,0,142.812,234.071Z" transform="translate(-46.3 -191.2)" fill="#454b4c"/>
      </g>
      <g id="Group_206" data-name="Group 206" transform="translate(10.982 82.327)">
        <path id="Path_157" data-name="Path 157" d="M143.263,208.669h-74.3A3.191,3.191,0,0,1,65.8,205.5v-7.434a3.191,3.191,0,0,1,3.168-3.168h74.253a3.191,3.191,0,0,1,3.168,3.168V205.5A3.1,3.1,0,0,1,143.263,208.669Z" transform="translate(-65.8 -194.9)" fill="#fff"/>
      </g>
      <g id="Group_207" data-name="Group 207" transform="translate(26.736 82.327)">
        <rect id="Rectangle_19" data-name="Rectangle 19" width="3.548" height="13.769" fill="#afd8f9"/>
      </g>
      <g id="Group_208" data-name="Group 208" transform="translate(34.592 82.327)">
        <rect id="Rectangle_20" data-name="Rectangle 20" width="9.841" height="13.769" fill="#afd8f9"/>
      </g>
      <g id="Group_209" data-name="Group 209" transform="translate(9.419 80.764)">
        <path id="Path_158" data-name="Path 158" d="M141.337,208.095H66.619a4.525,4.525,0,0,1-4.519-4.519v-7.856a4.525,4.525,0,0,1,4.519-4.519h74.718a4.525,4.525,0,0,1,4.519,4.519v7.856A4.524,4.524,0,0,1,141.337,208.095ZM66.619,194.368a1.406,1.406,0,0,0-1.394,1.394v7.856a1.406,1.406,0,0,0,1.394,1.394h74.718a1.406,1.406,0,0,0,1.394-1.394v-7.856a1.406,1.406,0,0,0-1.394-1.394Z" transform="translate(-62.1 -191.2)" fill="#267dce"/>
      </g>
      <g id="Group_210" data-name="Group 210" transform="translate(10.982 96.096)">
        <path id="Path_159" data-name="Path 159" d="M143.263,241.269h-74.3A3.191,3.191,0,0,1,65.8,238.1v-7.434a3.191,3.191,0,0,1,3.168-3.168h74.253a3.191,3.191,0,0,1,3.168,3.168V238.1A3.128,3.128,0,0,1,143.263,241.269Z" transform="translate(-65.8 -227.5)" fill="#fff"/>
      </g>
      <g id="Group_211" data-name="Group 211" transform="translate(26.736 96.096)">
        <rect id="Rectangle_21" data-name="Rectangle 21" width="3.548" height="13.769" fill="#afd8f9"/>
      </g>
      <g id="Group_212" data-name="Group 212" transform="translate(34.592 96.096)">
        <rect id="Rectangle_22" data-name="Rectangle 22" width="9.841" height="13.769" fill="#afd8f9"/>
      </g>
      <g id="Group_213" data-name="Group 213" transform="translate(9.419 94.533)">
        <path id="Path_160" data-name="Path 160" d="M141.337,240.695H66.619a4.525,4.525,0,0,1-4.519-4.519v-7.856a4.525,4.525,0,0,1,4.519-4.519h74.718a4.525,4.525,0,0,1,4.519,4.519v7.856A4.524,4.524,0,0,1,141.337,240.695ZM66.619,226.926a1.406,1.406,0,0,0-1.394,1.394v7.856a1.406,1.406,0,0,0,1.394,1.394h74.718a1.406,1.406,0,0,0,1.394-1.394v-7.856a1.406,1.406,0,0,0-1.394-1.394H66.619Z" transform="translate(-62.1 -223.8)" fill="#267dce"/>
      </g>
      <g id="Group_214" data-name="Group 214" transform="translate(1.563 111.428)">
        <path id="Path_161" data-name="Path 161" d="M120.921,277.569H46.668A3.191,3.191,0,0,1,43.5,274.4v-7.434a3.191,3.191,0,0,1,3.168-3.168h74.253a3.191,3.191,0,0,1,3.168,3.168V274.4A3.163,3.163,0,0,1,120.921,277.569Z" transform="translate(-43.5 -263.8)" fill="#fff"/>
      </g>
      <g id="Group_215" data-name="Group 215" transform="translate(17.275 111.428)">
        <rect id="Rectangle_23" data-name="Rectangle 23" width="3.548" height="13.769" fill="#afd8f9"/>
      </g>
      <g id="Group_216" data-name="Group 216" transform="translate(25.131 111.428)">
        <rect id="Rectangle_24" data-name="Rectangle 24" width="9.841" height="13.769" fill="#afd8f9"/>
      </g>
      <g id="Group_217" data-name="Group 217" transform="translate(0 109.866)">
        <path id="Path_162" data-name="Path 162" d="M118.995,276.995H44.319a4.524,4.524,0,0,1-4.519-4.519v-7.856a4.525,4.525,0,0,1,4.519-4.519h74.718a4.524,4.524,0,0,1,4.519,4.519v7.856A4.588,4.588,0,0,1,118.995,276.995ZM44.319,263.226a1.406,1.406,0,0,0-1.394,1.394v7.856a1.406,1.406,0,0,0,1.394,1.394h74.718a1.406,1.406,0,0,0,1.394-1.394v-7.856a1.406,1.406,0,0,0-1.394-1.394Z" transform="translate(-39.8 -260.1)" fill="#267dce"/>
      </g>
      <g id="Group_218" data-name="Group 218" transform="translate(18.838 125.198)">
        <path id="Path_163" data-name="Path 163" d="M161.863,310.169h-74.3A3.191,3.191,0,0,1,84.4,307v-7.434a3.191,3.191,0,0,1,3.168-3.168h74.253a3.191,3.191,0,0,1,3.168,3.168V307A3.128,3.128,0,0,1,161.863,310.169Z" transform="translate(-84.4 -296.4)" fill="#fff"/>
      </g>
      <g id="Group_219" data-name="Group 219" transform="translate(34.592 125.198)">
        <rect id="Rectangle_25" data-name="Rectangle 25" width="3.548" height="13.769" fill="#afd8f9"/>
      </g>
      <g id="Group_220" data-name="Group 220" transform="translate(42.448 125.198)">
        <rect id="Rectangle_26" data-name="Rectangle 26" width="9.841" height="13.769" fill="#afd8f9"/>
      </g>
      <g id="Group_221" data-name="Group 221" transform="translate(17.275 123.635)">
        <path id="Path_164" data-name="Path 164" d="M159.937,309.595H85.219a4.524,4.524,0,0,1-4.519-4.519v-7.856a4.525,4.525,0,0,1,4.519-4.519h74.718a4.525,4.525,0,0,1,4.519,4.519v7.856A4.525,4.525,0,0,1,159.937,309.595ZM85.219,295.826a1.406,1.406,0,0,0-1.394,1.394v7.856a1.406,1.406,0,0,0,1.394,1.394h74.718a1.406,1.406,0,0,0,1.394-1.394v-7.856a1.406,1.406,0,0,0-1.394-1.394Z" transform="translate(-80.7 -292.7)" fill="#267dce"/>
      </g>
      <g id="Group_222" data-name="Group 222" transform="translate(10.982 140.53)">
        <path id="Path_165" data-name="Path 165" d="M143.263,346.469h-74.3A3.191,3.191,0,0,1,65.8,343.3v-7.434a3.191,3.191,0,0,1,3.168-3.168h74.253a3.191,3.191,0,0,1,3.168,3.168V343.3A3.128,3.128,0,0,1,143.263,346.469Z" transform="translate(-65.8 -332.7)" fill="#fff"/>
      </g>
      <g id="Group_223" data-name="Group 223" transform="translate(26.736 140.53)">
        <rect id="Rectangle_27" data-name="Rectangle 27" width="3.548" height="13.769" fill="#afd8f9"/>
      </g>
      <g id="Group_224" data-name="Group 224" transform="translate(34.592 140.53)">
        <rect id="Rectangle_28" data-name="Rectangle 28" width="9.841" height="13.769" fill="#afd8f9"/>
      </g>
      <g id="Group_225" data-name="Group 225" transform="translate(9.419 138.967)">
        <path id="Path_166" data-name="Path 166" d="M141.337,345.895H66.619a4.525,4.525,0,0,1-4.519-4.519v-7.856A4.525,4.525,0,0,1,66.619,329h74.718a4.524,4.524,0,0,1,4.519,4.519v7.856A4.525,4.525,0,0,1,141.337,345.895ZM66.619,332.126a1.406,1.406,0,0,0-1.394,1.394v7.856a1.406,1.406,0,0,0,1.394,1.394h74.718a1.406,1.406,0,0,0,1.394-1.394v-7.856a1.406,1.406,0,0,0-1.394-1.394Z" transform="translate(-62.1 -329)" fill="#267dce"/>
      </g>
      <g id="Group_226" data-name="Group 226" transform="translate(15.712 154.299)">
        <path id="Path_167" data-name="Path 167" d="M154.421,379.069H80.168A3.191,3.191,0,0,1,77,375.9v-7.434a3.191,3.191,0,0,1,3.168-3.168h74.253a3.191,3.191,0,0,1,3.168,3.168V375.9A3.163,3.163,0,0,1,154.421,379.069Z" transform="translate(-77 -365.3)" fill="#fff"/>
      </g>
      <g id="Group_227" data-name="Group 227" transform="translate(31.425 154.299)">
        <rect id="Rectangle_29" data-name="Rectangle 29" width="3.548" height="13.769" fill="#afd8f9"/>
      </g>
      <g id="Group_228" data-name="Group 228" transform="translate(39.281 154.299)">
        <rect id="Rectangle_30" data-name="Rectangle 30" width="9.841" height="13.769" fill="#afd8f9"/>
      </g>
      <g id="Group_229" data-name="Group 229" transform="translate(14.149 152.736)">
        <path id="Path_168" data-name="Path 168" d="M152.495,378.495H77.819a4.524,4.524,0,0,1-4.519-4.519v-7.856a4.525,4.525,0,0,1,4.519-4.519h74.718a4.525,4.525,0,0,1,4.519,4.519v7.856A4.588,4.588,0,0,1,152.495,378.495ZM77.819,364.726a1.406,1.406,0,0,0-1.394,1.394v7.856a1.406,1.406,0,0,0,1.394,1.394h74.718a1.406,1.406,0,0,0,1.394-1.394v-7.856a1.406,1.406,0,0,0-1.394-1.394Z" transform="translate(-73.3 -361.6)" fill="#267dce"/>
      </g>
      <g id="Group_230" data-name="Group 230" transform="translate(27.912 0)" opacity="0.2">
        <path id="Path_169" data-name="Path 169" d="M184.748,23.517a41.473,41.473,0,1,0-8.067,47.264A41.275,41.275,0,0,0,184.748,23.517Z" transform="translate(-105.885 0.015)" fill="#454b4c"/>
      </g>
      <g id="Group_231" data-name="Group 231" transform="translate(27.086 3.144)">
        <path id="Path_170" data-name="Path 170" d="M118.235,21.693a39.9,39.9,0,0,1,45.278-7.856,38.355,38.355,0,0,0-53.177,53.177A39.9,39.9,0,0,1,118.235,21.693Z" transform="translate(-103.928 -7.428)" fill="#e9f6ff"/>
      </g>
      <g id="Group_232" data-name="Group 232" transform="translate(44.138 20.196)">
        <path id="Path_171" data-name="Path 171" d="M189.621,93.121a39.956,39.956,0,0,1-45.321,7.856A38.355,38.355,0,0,0,197.477,47.8,39.956,39.956,0,0,1,189.621,93.121Z" transform="translate(-144.3 -47.8)" fill="#afd8f9"/>
      </g>
      <g id="Group_233" data-name="Group 233" transform="translate(29.708 5.723)">
        <path id="Path_172" data-name="Path 172" d="M167.1,17.364a39.918,39.918,0,0,0-53.135,53.177,36.763,36.763,0,0,0,4.815,5.829,41.488,41.488,0,0,0,5.829,4.815,39.931,39.931,0,0,0,53.177-53.177,36.763,36.763,0,0,0-4.815-5.829A39.528,39.528,0,0,0,167.1,17.364Z" transform="translate(-110.136 -13.536)" fill="#fff"/>
      </g>
      <g id="Group_234" data-name="Group 234" transform="translate(23.961 0)">
        <path id="Path_173" data-name="Path 173" d="M175.374,23.517a41.473,41.473,0,1,0-8.067,47.264A41.275,41.275,0,0,0,175.374,23.517ZM165.11,68.542a38.388,38.388,0,0,1-48.362,4.815,36.762,36.762,0,0,1-5.829-4.815,41.489,41.489,0,0,1-4.815-5.829A38.333,38.333,0,0,1,159.239,9.537a36.762,36.762,0,0,1,5.829,4.815,41.489,41.489,0,0,1,4.815,5.829A38.372,38.372,0,0,1,165.11,68.542Z" transform="translate(-96.529 0.015)" fill="#267dce"/>
      </g>
      <g id="Group_235" data-name="Group 235" transform="translate(55.669 24.335)">
        <path id="Path_174" data-name="Path 174" d="M179.921,91.9V87.757a9.13,9.13,0,0,1-8.321-7.983l4.815-1.183c.253,2.45,1.858,4.688,5.449,4.688,2.534,0,4.013-1.225,4.013-2.914,0-1.309-.971-2.323-2.914-2.745l-3.59-.76c-4.181-.929-6.8-3.59-6.8-7.307,0-4.139,3.168-7.138,7.349-7.814V57.6h3.97v4.266a8.246,8.246,0,0,1,6.969,6.547l-4.773,1.352a4.2,4.2,0,0,0-4.435-3.632c-2.492,0-3.844,1.436-3.844,3.041,0,1.225.845,2.2,2.661,2.619l3.548.8c4.9,1.1,7.1,4.013,7.1,7.518,0,3.59-2.576,6.885-7.223,7.6V91.9h-3.97Z" transform="translate(-171.6 -57.6)" fill="#267dce"/>
      </g>
    </g>
    <g id="Group_243" data-name="Group 243" transform="translate(0 154.749)">
      <g id="Group_237" data-name="Group 237" transform="translate(10.939 25.765)">
        <path id="Path_175" data-name="Path 175" d="M38.994,433.271l5.2,2.83a.718.718,0,0,1,0,1.267l-5.2,2.83a.987.987,0,0,0-.3.3l-2.83,5.2a.718.718,0,0,1-1.267,0l-2.83-5.2a.987.987,0,0,0-.3-.3l-5.2-2.83a.718.718,0,0,1,0-1.267l5.2-2.83a.987.987,0,0,0,.3-.3l2.83-5.2a.718.718,0,0,1,1.267,0l2.83,5.2A.986.986,0,0,0,38.994,433.271Z" transform="translate(-25.9 -427.4)" fill="#fff"/>
      </g>
      <g id="Group_238" data-name="Group 238" transform="translate(10.137 24.962)">
        <path id="Path_176" data-name="Path 176" d="M34.137,445.774a1.514,1.514,0,0,1-1.352-.8l-2.83-5.153-5.153-2.83a1.539,1.539,0,0,1,0-2.7l5.153-2.83,2.83-5.153a1.539,1.539,0,0,1,2.7,0l2.83,5.153,5.153,2.83a1.539,1.539,0,0,1,0,2.7l-5.153,2.83-2.83,5.153A1.514,1.514,0,0,1,34.137,445.774Zm-8.447-10.137,5.068,2.745a1.334,1.334,0,0,1,.591.591l2.745,5.068,2.745-5.068a1.334,1.334,0,0,1,.591-.591l5.068-2.745-4.984-2.745a1.334,1.334,0,0,1-.591-.591l-2.745-5.068L31.434,432.3a1.334,1.334,0,0,1-.591.591Z" transform="translate(-24 -425.5)" fill="#267dce"/>
      </g>
      <g id="Group_239" data-name="Group 239" transform="translate(26.145 5.491)">
        <path id="Path_177" data-name="Path 177" d="M74.994,385.271l5.2,2.83a.718.718,0,0,1,0,1.267l-5.2,2.83a.987.987,0,0,0-.3.3l-2.83,5.2a.718.718,0,0,1-1.267,0l-2.83-5.2a.987.987,0,0,0-.3-.3l-5.2-2.83a.718.718,0,0,1,0-1.267l5.2-2.83a.987.987,0,0,0,.3-.3l2.83-5.2a.718.718,0,0,1,1.267,0l2.83,5.2A.987.987,0,0,0,74.994,385.271Z" transform="translate(-61.9 -379.4)" fill="#e9f6ff"/>
      </g>
      <g id="Group_240" data-name="Group 240" transform="translate(25.342 4.688)">
        <path id="Path_178" data-name="Path 178" d="M70.137,397.774a1.514,1.514,0,0,1-1.352-.8l-2.83-5.153-5.153-2.83a1.539,1.539,0,0,1,0-2.7l5.153-2.83,2.83-5.153a1.539,1.539,0,0,1,2.7,0l2.83,5.153,5.153,2.83a1.539,1.539,0,0,1,0,2.7l-5.153,2.83-2.83,5.153A1.514,1.514,0,0,1,70.137,397.774Zm-8.447-10.137,5.068,2.745a1.334,1.334,0,0,1,.591.591l2.745,5.068,2.745-5.068a1.334,1.334,0,0,1,.591-.591l5.068-2.745-4.984-2.745a1.334,1.334,0,0,1-.591-.591l-2.745-5.068L67.434,384.3a1.334,1.334,0,0,1-.591.591Z" transform="translate(-60 -377.5)" fill="#267dce"/>
      </g>
      <g id="Group_241" data-name="Group 241" transform="translate(0.866 0.95)">
        <path id="Path_179" data-name="Path 179" d="M17.108,375.387l5.955,3.252a.838.838,0,0,1,0,1.478l-5.955,3.252a1.285,1.285,0,0,0-.338.338l-3.252,5.955a.838.838,0,0,1-1.478,0l-3.252-5.955a1.285,1.285,0,0,0-.338-.338l-5.955-3.252a.838.838,0,0,1,0-1.478l5.955-3.252a1.285,1.285,0,0,0,.338-.338l3.252-5.955a.838.838,0,0,1,1.478,0l3.252,5.955A1.285,1.285,0,0,0,17.108,375.387Z" transform="translate(-2.05 -368.65)" fill="#afd8f9"/>
      </g>
      <g id="Group_242" data-name="Group 242">
        <path id="Path_180" data-name="Path 180" d="M11.615,389.673a1.794,1.794,0,0,1-1.563-.929L6.8,382.83.887,379.578A1.723,1.723,0,0,1,0,378.057a1.794,1.794,0,0,1,.929-1.563l5.913-3.252,3.252-5.913a1.778,1.778,0,0,1,1.563-.929,1.746,1.746,0,0,1,1.563.929l3.252,5.913,5.913,3.252a1.779,1.779,0,0,1,0,3.126l-5.913,3.252-3.252,5.913A1.971,1.971,0,0,1,11.615,389.673ZM1.943,378.057l5.787,3.168a1.952,1.952,0,0,1,.718.718l3.168,5.787,3.168-5.787a1.952,1.952,0,0,1,.718-.718l5.787-3.168L15.5,374.89a1.952,1.952,0,0,1-.718-.718l-3.168-5.786-3.168,5.829a1.952,1.952,0,0,1-.718.718Z" transform="translate(0 -366.4)" fill="#267dce"/>
      </g>
    </g>
  </g>
</svg>
