<svg xmlns="http://www.w3.org/2000/svg" width="167.996" height="200" viewBox="0 0 167.996 200">
  <g id="smart-search" transform="translate(0 0.2)">
    <g id="Group_284" data-name="Group 284" transform="translate(108.555 -0.2)">
      <g id="Group_273" data-name="Group 273" transform="translate(11.525 27.083)">
        <g id="Group_272" data-name="Group 272">
          <path id="Path_218" data-name="Path 218" d="M284.641,67.061l5.452,2.97a.753.753,0,0,1,0,1.33l-5.452,2.97a1.036,1.036,0,0,0-.31.31l-2.97,5.452a.753.753,0,0,1-1.33,0l-2.97-5.452a1.035,1.035,0,0,0-.31-.31l-5.452-2.97a.753.753,0,0,1,0-1.33l5.452-2.97a1.036,1.036,0,0,0,.31-.31l2.97-5.452a.753.753,0,0,1,1.33,0l2.97,5.452A1.036,1.036,0,0,0,284.641,67.061Z" transform="translate(-270.9 -60.9)" fill="#fff"/>
        </g>
      </g>
      <g id="Group_275" data-name="Group 275" transform="translate(10.683 26.241)">
        <g id="Group_274" data-name="Group 274">
          <path id="Path_219" data-name="Path 219" d="M279.638,80.277a1.588,1.588,0,0,1-1.418-.842l-2.97-5.408-5.408-2.97a1.616,1.616,0,0,1,0-2.837l5.408-2.97,2.97-5.408a1.616,1.616,0,0,1,2.837,0l2.97,5.408,5.408,2.97a1.616,1.616,0,0,1,0,2.837l-5.408,2.97-2.97,5.408A1.588,1.588,0,0,1,279.638,80.277Zm-8.865-10.638,5.319,2.881a1.4,1.4,0,0,1,.621.621l2.881,5.319,2.881-5.319a1.4,1.4,0,0,1,.621-.621l5.319-2.881L283.1,66.757a1.4,1.4,0,0,1-.621-.621l-2.837-5.363-2.881,5.319a1.4,1.4,0,0,1-.621.621Z" transform="translate(-269 -59)" fill="#267dce"/>
        </g>
      </g>
      <g id="Group_277" data-name="Group 277" transform="translate(27.482 5.807)">
        <g id="Group_276" data-name="Group 276">
          <path id="Path_220" data-name="Path 220" d="M320.641,19.061l5.452,2.97a.753.753,0,0,1,0,1.33l-5.452,2.97a1.036,1.036,0,0,0-.31.31l-2.97,5.452a.753.753,0,0,1-1.33,0l-2.97-5.452a1.036,1.036,0,0,0-.31-.31l-5.452-2.97a.753.753,0,0,1,0-1.33l5.452-2.97a1.036,1.036,0,0,0,.31-.31l2.97-5.452a.753.753,0,0,1,1.33,0l2.97,5.452A1.036,1.036,0,0,0,320.641,19.061Z" transform="translate(-306.9 -12.9)" fill="#e9f6ff"/>
        </g>
      </g>
      <g id="Group_279" data-name="Group 279" transform="translate(26.64 4.965)">
        <g id="Group_278" data-name="Group 278">
          <path id="Path_221" data-name="Path 221" d="M315.638,32.277a1.588,1.588,0,0,1-1.418-.842l-2.97-5.408-5.408-2.97a1.616,1.616,0,0,1,0-2.837l5.408-2.97,2.97-5.408a1.616,1.616,0,0,1,2.837,0l2.97,5.408,5.408,2.97a1.616,1.616,0,0,1,0,2.837l-5.408,2.97-2.97,5.408A1.588,1.588,0,0,1,315.638,32.277Zm-8.865-10.638,5.319,2.881a1.4,1.4,0,0,1,.621.621l2.881,5.319,2.881-5.319a1.4,1.4,0,0,1,.621-.621l5.319-2.881L319.1,18.757a1.4,1.4,0,0,1-.621-.621l-2.837-5.363-2.881,5.319a1.4,1.4,0,0,1-.621.621Z" transform="translate(-305 -11)" fill="#267dce"/>
        </g>
      </g>
      <g id="Group_281" data-name="Group 281" transform="translate(0.953 1.042)">
        <g id="Group_280" data-name="Group 280">
          <path id="Path_222" data-name="Path 222" d="M262.852,9.22l6.25,3.413a.879.879,0,0,1,0,1.551l-6.25,3.413a1.349,1.349,0,0,0-.355.355l-3.413,6.25a.879.879,0,0,1-1.551,0l-3.413-6.25a1.35,1.35,0,0,0-.355-.355l-6.25-3.413a.879.879,0,0,1,0-1.551l6.25-3.413a1.349,1.349,0,0,0,.355-.355l3.413-6.25a.879.879,0,0,1,1.551,0l3.413,6.25A1.349,1.349,0,0,0,262.852,9.22Z" transform="translate(-247.05 -2.15)" fill="#afd8f9"/>
        </g>
      </g>
      <g id="Group_283" data-name="Group 283">
        <g id="Group_282" data-name="Group 282">
          <path id="Path_223" data-name="Path 223" d="M257.134,24.268a1.883,1.883,0,0,1-1.64-.975l-3.413-6.206-6.206-3.413a1.866,1.866,0,0,1-.975-1.64,1.832,1.832,0,0,1,.975-1.64l6.206-3.413L255.494.775a1.866,1.866,0,0,1,1.64-.975,1.832,1.832,0,0,1,1.64.975l3.413,6.206,6.206,3.413a1.866,1.866,0,0,1,.975,1.64,1.832,1.832,0,0,1-.975,1.64l-6.206,3.413-3.413,6.206A1.883,1.883,0,0,1,257.134,24.268Zm-10.151-12.19,6.073,3.324a2.048,2.048,0,0,1,.754.754l3.324,6.073,3.324-6.073a2.048,2.048,0,0,1,.754-.754l6.073-3.324-6.073-3.324A2.048,2.048,0,0,1,260.458,8l-3.324-6.073L253.81,8a2.048,2.048,0,0,1-.754.754Z" transform="translate(-244.9 0.2)" fill="#267dce"/>
        </g>
      </g>
    </g>
    <g id="Group_297" data-name="Group 297" transform="translate(0 152.327)">
      <g id="Group_286" data-name="Group 286" transform="translate(11.48 27.039)">
        <g id="Group_285" data-name="Group 285">
          <path id="Path_224" data-name="Path 224" d="M39.641,411.061l5.452,2.97a.753.753,0,0,1,0,1.33l-5.452,2.97a1.035,1.035,0,0,0-.31.31l-2.97,5.452a.753.753,0,0,1-1.33,0l-2.97-5.452a1.036,1.036,0,0,0-.31-.31l-5.452-2.97a.753.753,0,0,1,0-1.33l5.452-2.97a1.036,1.036,0,0,0,.31-.31l2.97-5.452a.753.753,0,0,1,1.33,0l2.97,5.452A1.036,1.036,0,0,0,39.641,411.061Z" transform="translate(-25.9 -404.9)" fill="#fff"/>
        </g>
      </g>
      <g id="Group_288" data-name="Group 288" transform="translate(10.638 26.197)">
        <g id="Group_287" data-name="Group 287">
          <path id="Path_225" data-name="Path 225" d="M34.638,424.277a1.589,1.589,0,0,1-1.418-.842l-2.97-5.408-5.408-2.97a1.616,1.616,0,0,1,0-2.837l5.408-2.97,2.97-5.408a1.616,1.616,0,0,1,2.837,0l2.97,5.408,5.408,2.97a1.616,1.616,0,0,1,0,2.837l-5.408,2.97-2.97,5.408A1.589,1.589,0,0,1,34.638,424.277Zm-8.865-10.638,5.319,2.881a1.4,1.4,0,0,1,.621.621l2.881,5.319,2.881-5.319a1.4,1.4,0,0,1,.621-.621l5.319-2.881L38.1,410.757a1.4,1.4,0,0,1-.621-.621l-2.837-5.363-2.881,5.319a1.4,1.4,0,0,1-.621.621Z" transform="translate(-24 -403)" fill="#267dce"/>
        </g>
      </g>
      <g id="Group_290" data-name="Group 290" transform="translate(27.438 5.762)">
        <g id="Group_289" data-name="Group 289">
          <path id="Path_226" data-name="Path 226" d="M75.641,363.061l5.452,2.97a.753.753,0,0,1,0,1.33l-5.452,2.97a1.035,1.035,0,0,0-.31.31l-2.97,5.452a.753.753,0,0,1-1.33,0l-2.97-5.452a1.036,1.036,0,0,0-.31-.31l-5.452-2.97a.753.753,0,0,1,0-1.33l5.452-2.97a1.036,1.036,0,0,0,.31-.31l2.97-5.452a.753.753,0,0,1,1.33,0l2.97,5.452A1.036,1.036,0,0,0,75.641,363.061Z" transform="translate(-61.9 -356.9)" fill="#e9f6ff"/>
        </g>
      </g>
      <g id="Group_292" data-name="Group 292" transform="translate(26.596 4.92)">
        <g id="Group_291" data-name="Group 291">
          <path id="Path_227" data-name="Path 227" d="M70.638,376.277a1.589,1.589,0,0,1-1.418-.842l-2.97-5.408-5.408-2.97a1.616,1.616,0,0,1,0-2.837l5.408-2.97,2.97-5.408a1.616,1.616,0,0,1,2.837,0l2.97,5.408,5.408,2.97a1.616,1.616,0,0,1,0,2.837l-5.408,2.97-2.97,5.408A1.589,1.589,0,0,1,70.638,376.277Zm-8.865-10.638,5.319,2.881a1.4,1.4,0,0,1,.621.621l2.881,5.319,2.881-5.319a1.4,1.4,0,0,1,.621-.621l5.319-2.881L74.1,362.757a1.4,1.4,0,0,1-.621-.621l-2.837-5.363-2.881,5.319a1.4,1.4,0,0,1-.621.621Z" transform="translate(-60 -355)" fill="#267dce"/>
        </g>
      </g>
      <g id="Group_294" data-name="Group 294" transform="translate(0.909 0.997)">
        <g id="Group_293" data-name="Group 293">
          <path id="Path_228" data-name="Path 228" d="M17.852,353.22l6.25,3.413a.879.879,0,0,1,0,1.551l-6.25,3.413a1.349,1.349,0,0,0-.355.355l-3.413,6.25a.879.879,0,0,1-1.551,0l-3.413-6.25a1.349,1.349,0,0,0-.355-.355l-6.25-3.413a.879.879,0,0,1,0-1.551l6.25-3.413a1.349,1.349,0,0,0,.355-.355l3.413-6.25a.879.879,0,0,1,1.551,0l3.413,6.25A1.349,1.349,0,0,0,17.852,353.22Z" transform="translate(-2.05 -346.15)" fill="#afd8f9"/>
        </g>
      </g>
      <g id="Group_296" data-name="Group 296">
        <g id="Group_295" data-name="Group 295">
          <path id="Path_229" data-name="Path 229" d="M12.19,368.324a1.883,1.883,0,0,1-1.64-.975l-3.413-6.206L.931,357.73a1.809,1.809,0,0,1-.931-1.6,1.883,1.883,0,0,1,.975-1.64l6.206-3.413,3.413-6.206a1.866,1.866,0,0,1,1.64-.975,1.832,1.832,0,0,1,1.64.975l3.413,6.206,6.206,3.413a1.866,1.866,0,0,1,.975,1.64,1.832,1.832,0,0,1-.975,1.64l-6.206,3.413-3.413,6.206A2.069,2.069,0,0,1,12.19,368.324ZM2.039,356.134l6.073,3.324a2.048,2.048,0,0,1,.754.754l3.324,6.073,3.324-6.073a2.048,2.048,0,0,1,.754-.754l6.073-3.324-6.073-3.324a2.048,2.048,0,0,1-.754-.754l-3.324-6.073-3.324,6.073a2.049,2.049,0,0,1-.754.754Z" transform="translate(0 -343.9)" fill="#267dce"/>
        </g>
      </g>
    </g>
    <g id="Group_345" data-name="Group 345" transform="translate(14.16 10.525)">
      <g id="Group_312" data-name="Group 312" transform="translate(85.973 54.656)">
        <g id="Group_306" data-name="Group 306">
          <g id="Group_298" data-name="Group 298" transform="translate(2.216 2.208)">
            <path id="Path_230" data-name="Path 230" d="M287.46,163.815a6.08,6.08,0,0,0-6.028,3.768v-4.92a6.356,6.356,0,0,0-5.9-6.383,6.213,6.213,0,0,0-6.516,6.206v-3.812a6.356,6.356,0,0,0-5.9-6.383,6.213,6.213,0,0,0-6.516,6.206v7.535a6.188,6.188,0,0,0-6.516-6.206,6.326,6.326,0,0,0-5.9,6.383v16a4.654,4.654,0,0,0-4.654-4.654h-3.989a4.654,4.654,0,0,0-4.654,4.654v26.02a4.663,4.663,0,0,0,2.172,3.945l5.142,2.039a5.972,5.972,0,0,1,3.768,5.541v12.81h43V215.233a5.842,5.842,0,0,1,2.438-4.787l.665-.488c1.6-1.374,5.053-3.413,5.053-5.5V170.154A6.191,6.191,0,0,0,287.46,163.815Z" transform="translate(-230.9 -152.282)" fill="#fff"/>
          </g>
          <g id="Group_300" data-name="Group 300" transform="translate(50.576 14.638)">
            <g id="Group_299" data-name="Group 299">
              <path id="Path_231" data-name="Path 231" d="M348.422,180.358a5.826,5.826,0,0,0-3.5.709,6.126,6.126,0,0,1,3.236,5.363v34.486c0,2.083-3.457,4.167-5.053,5.5h0a7.6,7.6,0,0,0-3.1,6.117v16.489h5.762V228.673l3.1-2.261c1.6-1.374,5.053-3.413,5.053-5.5V186.563A6.2,6.2,0,0,0,348.422,180.358Z" transform="translate(-340 -180.324)" fill="#afd8f9"/>
            </g>
          </g>
          <g id="Group_301" data-name="Group 301" transform="translate(0 25.266)">
            <path id="Path_232" data-name="Path 232" d="M229.934,242.465A1.862,1.862,0,0,1,229,242.2a6.376,6.376,0,0,1-3.1-5.452v-26.02a6.528,6.528,0,0,1,6.6-6.427h4.122a6.528,6.528,0,0,1,6.6,6.427v16.179a1.773,1.773,0,0,1-3.546,0V210.727a2.974,2.974,0,0,0-3.059-2.881H232.5a2.974,2.974,0,0,0-3.059,2.881v26.02a2.922,2.922,0,0,0,1.374,2.438,1.749,1.749,0,0,1,.576,2.438A1.608,1.608,0,0,1,229.934,242.465Z" transform="translate(-225.9 -204.3)" fill="#267dce"/>
          </g>
          <g id="Group_302" data-name="Group 302" transform="translate(13.918 7.535)">
            <path id="Path_233" data-name="Path 233" d="M259.073,190.142a1.778,1.778,0,0,1-1.773-1.773v-16.09a7.979,7.979,0,0,1,15.957,0,1.773,1.773,0,1,1-3.546,0,4.433,4.433,0,1,0-8.865,0v16.09A1.778,1.778,0,0,1,259.073,190.142Z" transform="translate(-257.3 -164.3)" fill="#267dce"/>
          </g>
          <g id="Group_303" data-name="Group 303" transform="translate(26.33)">
            <path id="Path_234" data-name="Path 234" d="M287.073,181.431a1.778,1.778,0,0,1-1.773-1.773V155.279a7.979,7.979,0,0,1,15.957,0,1.773,1.773,0,1,1-3.546,0,4.433,4.433,0,1,0-8.865,0v24.379A1.778,1.778,0,0,1,287.073,181.431Z" transform="translate(-285.3 -147.3)" fill="#267dce"/>
          </g>
          <g id="Group_304" data-name="Group 304" transform="translate(38.741 3.989)">
            <path id="Path_235" data-name="Path 235" d="M327.484,186.442a1.778,1.778,0,0,1-1.773-1.773v-20.39a4.433,4.433,0,0,0-8.865,0v20.39a1.773,1.773,0,1,1-3.546,0v-20.39a7.979,7.979,0,0,1,15.957,0v20.39A1.778,1.778,0,0,1,327.484,186.442Z" transform="translate(-313.3 -156.3)" fill="#267dce"/>
          </g>
          <g id="Group_305" data-name="Group 305" transform="translate(0.488 0.392)">
            <path id="Path_236" data-name="Path 236" d="M282.851,232.013h-43a1.778,1.778,0,0,1-1.773-1.773v-12.81a4.067,4.067,0,0,0-2.66-3.856l-5.142-2.039c-.089-.044-.222-.089-.31-.133a6.451,6.451,0,0,1-2.97-5.452v-26.02a6.432,6.432,0,0,1,6.427-6.427h3.989a7.04,7.04,0,0,1,2.881.665V163.883a7.986,7.986,0,0,1,12.411-6.826v-.887a7.842,7.842,0,0,1,2.482-5.762,8.044,8.044,0,0,1,5.9-2.216,7.961,7.961,0,0,1,7.181,5.585,7.613,7.613,0,0,1,5.186-1.6,8.057,8.057,0,0,1,7.58,8.156v.4a8.079,8.079,0,0,1,4.344-1.02h0a8,8,0,0,1,7.4,8.023v34.309c0,2.527-2.527,4.433-4.521,5.94-.443.31-.842.665-1.152.887-.044.044-.089.044-.089.089l-.665.488a4.2,4.2,0,0,0-1.684,3.369v17.332A1.864,1.864,0,0,1,282.851,232.013Zm-41.223-3.546h39.45V212.908a7.746,7.746,0,0,1,3.147-6.206l.621-.443a15.156,15.156,0,0,1,1.241-.975c.931-.709,3.1-2.349,3.1-3.147V167.828a4.309,4.309,0,0,0-8.289-1.817,1.773,1.773,0,0,1-3.413-.665v-4.92a4.6,4.6,0,0,0-4.211-4.61,4.3,4.3,0,0,0-3.28,1.241,4.4,4.4,0,0,0-1.374,3.191,1.773,1.773,0,1,1-3.546,0v-3.812a4.6,4.6,0,0,0-4.211-4.61,4.3,4.3,0,0,0-3.28,1.241,4.4,4.4,0,0,0-1.374,3.191v7.535a1.773,1.773,0,1,1-3.546,0,4.323,4.323,0,0,0-1.374-3.191,4.267,4.267,0,0,0-3.28-1.2,4.569,4.569,0,0,0-4.211,4.61v16a1.773,1.773,0,1,1-3.546,0,2.875,2.875,0,0,0-2.881-2.881h-3.989a2.875,2.875,0,0,0-2.881,2.881v26.02a2.878,2.878,0,0,0,1.2,2.349l4.965,1.95a7.647,7.647,0,0,1,4.876,7.181v10.949Z" transform="translate(-227 -148.185)" fill="#267dce"/>
          </g>
        </g>
        <g id="Group_311" data-name="Group 311" transform="translate(0.044 79.787)">
          <g id="Group_309" data-name="Group 309" transform="translate(1.773 1.773)">
            <g id="Group_307" data-name="Group 307">
              <path id="Path_237" data-name="Path 237" d="M292.057,377.843h-59.84A2.195,2.195,0,0,1,230,375.626V340.387a9.1,9.1,0,0,1,9.087-9.087h46.1a9.1,9.1,0,0,1,9.087,9.087v35.239A2.223,2.223,0,0,1,292.057,377.843Z" transform="translate(-230 -331.3)" fill="#afd8f9"/>
            </g>
            <g id="Group_308" data-name="Group 308">
              <path id="Path_238" data-name="Path 238" d="M284.965,377.843H232.216A2.195,2.195,0,0,1,230,375.626V340.387a9.1,9.1,0,0,1,9.087-9.087h39.007a9.1,9.1,0,0,1,9.087,9.087v35.239A2.223,2.223,0,0,1,284.965,377.843Z" transform="translate(-230 -331.3)" fill="#e9f6ff"/>
            </g>
          </g>
          <g id="Group_310" data-name="Group 310">
            <path id="Path_239" data-name="Path 239" d="M289.83,377.389h-59.84A3.973,3.973,0,0,1,226,373.4V338.16a10.878,10.878,0,0,1,10.86-10.86h46.1a10.878,10.878,0,0,1,10.86,10.86V373.4A4,4,0,0,1,289.83,377.389Zm-52.97-46.543a7.321,7.321,0,0,0-7.314,7.314V373.4a.419.419,0,0,0,.443.443h59.84a.419.419,0,0,0,.443-.443V338.16a7.321,7.321,0,0,0-7.314-7.314Z" transform="translate(-226 -327.3)" fill="#267dce"/>
          </g>
        </g>
      </g>
      <g id="Group_313" data-name="Group 313" transform="translate(19.971 22.298)" opacity="0.2">
        <circle id="Ellipse_3" data-name="Ellipse 3" cx="44.77" cy="44.77" r="44.77"/>
      </g>
      <g id="Group_343" data-name="Group 343">
        <g id="Group_319" data-name="Group 319" transform="translate(47.896 115.826)">
          <g id="Group_314" data-name="Group 314" transform="translate(1.773 1.773)">
            <path id="Path_240" data-name="Path 240" d="M160.4,354.46H144V292.181a2.875,2.875,0,0,1,2.881-2.881H157.52a2.875,2.875,0,0,1,2.881,2.881Z" transform="translate(-144 -289.3)" fill="#afd8f9"/>
          </g>
          <g id="Group_315" data-name="Group 315" transform="translate(1.773 1.773)">
            <rect id="Rectangle_32" data-name="Rectangle 32" width="9.752" height="65.16" fill="#e9f6ff"/>
          </g>
          <g id="Group_316" data-name="Group 316">
            <path id="Path_241" data-name="Path 241" d="M158.174,354.006h-16.4A1.778,1.778,0,0,1,140,352.233V289.954a4.654,4.654,0,0,1,4.654-4.654h10.638a4.654,4.654,0,0,1,4.654,4.654v62.278A1.778,1.778,0,0,1,158.174,354.006Zm-14.628-3.546H156.4V289.954a1.1,1.1,0,0,0-1.108-1.108H144.654a1.1,1.1,0,0,0-1.108,1.108Z" transform="translate(-140 -285.3)" fill="#267dce"/>
          </g>
          <g id="Group_317" data-name="Group 317" transform="translate(0 12.855)">
            <path id="Path_242" data-name="Path 242" d="M158.174,317.846h-16.4a1.773,1.773,0,1,1,0-3.546h16.4a1.773,1.773,0,0,1,0,3.546Z" transform="translate(-140 -314.3)" fill="#267dce"/>
          </g>
          <g id="Group_318" data-name="Group 318" transform="translate(0 21.277)">
            <path id="Path_243" data-name="Path 243" d="M158.174,336.846h-16.4a1.773,1.773,0,1,1,0-3.546h16.4a1.773,1.773,0,1,1,0,3.546Z" transform="translate(-140 -333.3)" fill="#267dce"/>
          </g>
        </g>
        <g id="Group_324" data-name="Group 324" transform="translate(11.549 20.525)">
          <g id="Group_322" data-name="Group 322" transform="translate(1.773 1.773)">
            <g id="Group_320" data-name="Group 320" transform="translate(39.982)">
              <path id="Path_244" data-name="Path 244" d="M156.987,74.3a43.317,43.317,0,0,0-4.787.266,44.759,44.759,0,0,1,0,89.007,42.146,42.146,0,0,0,4.787.266,44.77,44.77,0,0,0,0-89.539Z" transform="translate(-152.2 -74.3)" fill="#afd8f9"/>
            </g>
            <g id="Group_321" data-name="Group 321" transform="translate(0 0.266)">
              <ellipse id="Ellipse_4" data-name="Ellipse 4" cx="39.982" cy="44.504" rx="39.982" ry="44.504" fill="#e9f6ff"/>
            </g>
          </g>
          <g id="Group_323" data-name="Group 323">
            <path id="Path_245" data-name="Path 245" d="M104.543,163.385a46.543,46.543,0,1,1,46.543-46.543A46.594,46.594,0,0,1,104.543,163.385Zm0-89.539a43,43,0,1,0,43,43A43.037,43.037,0,0,0,104.543,73.846Z" transform="translate(-58 -70.3)" fill="#267dce"/>
          </g>
        </g>
        <g id="Group_329" data-name="Group 329" transform="translate(23.074 32.05)">
          <g id="Group_327" data-name="Group 327" transform="translate(1.773 1.773)">
            <g id="Group_325" data-name="Group 325" transform="translate(29.699)">
              <path id="Path_246" data-name="Path 246" d="M158.546,100.3c-1.2,0-2.394.089-3.546.177a33.258,33.258,0,0,1,0,66.135,31.147,31.147,0,0,0,3.546.177,33.245,33.245,0,0,0,0-66.489Z" transform="translate(-155 -100.3)" fill="#e9f6ff"/>
            </g>
            <g id="Group_326" data-name="Group 326" transform="translate(0 0.177)">
              <ellipse id="Ellipse_5" data-name="Ellipse 5" cx="29.699" cy="33.067" rx="29.699" ry="33.067" fill="#fff"/>
            </g>
          </g>
          <g id="Group_328" data-name="Group 328">
            <path id="Path_247" data-name="Path 247" d="M119.018,166.335a35.018,35.018,0,1,1,35.018-35.018A35.035,35.035,0,0,1,119.018,166.335Zm0-66.489a31.472,31.472,0,1,0,31.472,31.472A31.536,31.536,0,0,0,119.018,99.846Z" transform="translate(-84 -96.3)" fill="#267dce"/>
          </g>
        </g>
        <g id="Group_330" data-name="Group 330" transform="translate(55.875 111.837)">
          <rect id="Rectangle_33" data-name="Rectangle 33" width="3.546" height="5.762" fill="#267dce"/>
        </g>
        <g id="Group_342" data-name="Group 342">
          <g id="Group_331" data-name="Group 331" transform="translate(0 47.097)">
            <path id="Path_248" data-name="Path 248" d="M42.608,136.475a2.225,2.225,0,0,1-.532-.089l-8.865-2.66a1.781,1.781,0,1,1,1.02-3.413l8.865,2.66a1.8,1.8,0,0,1,1.2,2.216A1.743,1.743,0,0,1,42.608,136.475Z" transform="translate(-31.946 -130.246)" fill="#267dce"/>
          </g>
          <g id="Group_332" data-name="Group 332" transform="translate(1.798 30.72)">
            <path id="Path_249" data-name="Path 249" d="M50.185,103.5a1.988,1.988,0,0,1-.842-.222L36.931,96.625a1.765,1.765,0,0,1,1.684-3.1l12.411,6.649a1.757,1.757,0,0,1,.709,2.394A1.791,1.791,0,0,1,50.185,103.5Z" transform="translate(-36.001 -93.301)" fill="#267dce"/>
          </g>
          <g id="Group_333" data-name="Group 333" transform="translate(15.577 21.672)">
            <path id="Path_250" data-name="Path 250" d="M75.338,83.088a1.851,1.851,0,0,1-1.285-.532L67.58,75.907a1.787,1.787,0,0,1,2.571-2.482l6.472,6.649a1.807,1.807,0,0,1-.044,2.527A1.9,1.9,0,0,1,75.338,83.088Z" transform="translate(-67.087 -72.887)" fill="#267dce"/>
          </g>
          <g id="Group_334" data-name="Group 334" transform="translate(25.135 8.225)">
            <path id="Path_251" data-name="Path 251" d="M98.025,57.954a1.8,1.8,0,0,1-1.507-.8l-7.58-11.879a1.764,1.764,0,0,1,2.97-1.906l7.624,11.835A1.738,1.738,0,0,1,99,57.644,1.6,1.6,0,0,1,98.025,57.954Z" transform="translate(-88.651 -42.551)" fill="#267dce"/>
          </g>
          <g id="Group_335" data-name="Group 335" transform="translate(41.581 7.073)">
            <path id="Path_252" data-name="Path 252" d="M129.941,52.43a1.8,1.8,0,0,1-1.729-1.33l-2.394-8.91a1.769,1.769,0,0,1,3.413-.931l2.394,8.954a1.78,1.78,0,0,1-1.241,2.172A1.508,1.508,0,0,1,129.941,52.43Z" transform="translate(-125.753 -39.953)" fill="#267dce"/>
          </g>
          <g id="Group_336" data-name="Group 336" transform="translate(56.449)">
            <path id="Path_253" data-name="Path 253" d="M161.957,41.551a1.754,1.754,0,0,1-1.773-1.64L159.3,25.859a1.754,1.754,0,1,1,3.5-.222l.887,14.051a1.745,1.745,0,0,1-1.64,1.862Z" transform="translate(-159.296 -23.996)" fill="#267dce"/>
          </g>
          <g id="Group_337" data-name="Group 337" transform="translate(69.17 6.914)">
            <path id="Path_254" data-name="Path 254" d="M189.769,52.14a1.663,1.663,0,0,1-.443-.044,1.8,1.8,0,0,1-1.285-2.172l2.261-9a1.785,1.785,0,1,1,3.457.887l-2.261,9A1.836,1.836,0,0,1,189.769,52.14Z" transform="translate(-187.993 -39.593)" fill="#267dce"/>
          </g>
          <g id="Group_338" data-name="Group 338" transform="translate(81.821 7.951)">
            <path id="Path_255" data-name="Path 255" d="M218.291,58.186a1.457,1.457,0,0,1-.754-.177,1.782,1.782,0,0,1-.842-2.349l6.073-12.722a1.765,1.765,0,1,1,3.191,1.507l-6.073,12.722A1.808,1.808,0,0,1,218.291,58.186Z" transform="translate(-216.533 -41.933)" fill="#267dce"/>
          </g>
          <g id="Group_339" data-name="Group 339" transform="translate(91.219 21.294)">
            <path id="Path_256" data-name="Path 256" d="M239.492,82.347a1.713,1.713,0,0,1-1.2-.488,1.806,1.806,0,0,1-.089-2.527L244.5,72.6a1.788,1.788,0,0,1,2.615,2.438l-6.339,6.738A1.725,1.725,0,0,1,239.492,82.347Z" transform="translate(-237.735 -72.035)" fill="#267dce"/>
          </g>
          <g id="Group_340" data-name="Group 340" transform="translate(99.907 30.204)">
            <path id="Path_257" data-name="Path 257" d="M259.138,103.823a1.792,1.792,0,0,1-1.064-3.236L269.6,92.475a1.778,1.778,0,1,1,2.083,2.881l-11.48,8.156A1.961,1.961,0,0,1,259.138,103.823Z" transform="translate(-257.337 -92.137)" fill="#267dce"/>
          </g>
          <g id="Group_341" data-name="Group 341" transform="translate(104.501 46.544)">
            <path id="Path_258" data-name="Path 258" d="M269.473,135.383a1.77,1.77,0,0,1-.532-3.457l8.821-2.837a1.741,1.741,0,0,1,2.216,1.152,1.776,1.776,0,0,1-1.152,2.216L270,135.294A1.124,1.124,0,0,1,269.473,135.383Z" transform="translate(-267.7 -129)" fill="#267dce"/>
          </g>
        </g>
      </g>
      <g id="Group_344" data-name="Group 344" transform="translate(36.372 180.986)">
        <path id="Path_259" data-name="Path 259" d="M196.89,435.846H115.773a1.773,1.773,0,1,1,0-3.546H196.89a1.773,1.773,0,1,1,0,3.546Z" transform="translate(-114 -432.3)" fill="#267dce"/>
      </g>
    </g>
  </g>
</svg>
